<svg xmlns="http://www.w3.org/2000/svg" width="1280" height="1280"><path d="m636.563 390.313 2.253.238c2.343.482 4.066 1.358 6.184 2.449 2.054.558 4.113.997 6.195 1.438C653 395 653 395 655 397l2.25.875c3.789 1.55 7.864 3.353 9.75 7.125 10.273 6.463 22.368 12.888 34.625 13.563 6.037.344 6.037.344 8.2.937 2.698.62 5.239.681 8.007.746l3.42.1q3.543.09 7.086.172c12.172.367 20.475 3.289 29.662 11.482a159 159 0 0 1 5 6l1.688 2.063c1.504 2.22 2.371 4.429 3.312 6.937l1 1.875c1 2.125 1 2.125 2 5.813l1 3.312 2 1c.737 1.91 1.468 3.824 2.152 5.754 1.342 3.555 3.101 6.876 4.848 10.246q1.098 2.154 2.188 4.313l.98 1.925C785 483 785 483 786 486l2.375.875c3.342 1.432 3.794 3.05 5.625 6.125a187 187 0 0 0 6 4 283 283 0 0 1 5 5q1.644 1.359 3.313 2.688L811 507v2c.73.235 1.462.47 2.215.71 7.668 3.55 12.518 11.803 15.785 19.29l1 1c.256 3.095.19 6.208.188 9.313l-.003 2.756c-.08 8.91-1.393 17.202-3.681 25.794-.88 3.732-1.439 7.52-2.04 11.305a77 77 0 0 1-1.017 5.176c-.809 4.806.092 9.539.678 14.343l.402 3.407c.837 6.541 2.095 12.593 4.16 18.843 2.45 7.6 2.794 14.916 2.813 22.875l.018 3.42c-.086 5.627-.286 9.023-3.518 13.768l-1.691 2.578c-5.278 7.537-11.303 13.245-18.336 19.113-9.937 8.434-18.656 17.152-22.328 29.871C774.39 750.458 774.39 750.458 763 758l-3.062 2.125c-8.765 4.695-19.027 6.266-28.782 7.383-3.224.503-6.095 1.376-9.156 2.492.371 3.768.852 7.384 2 11a101 101 0 0 0 6 3c1.83 3.162 2.902 6.526 4 10l.805 2.492a237 237 0 0 1 2.976 10.512l.782 2.996.69 2.75c.616 2.418.616 2.418 2.747 4.25.563 2.277.563 2.277 1 4.938.575 3.483.99 5.048 3 8.062.583 2.007 1.004 4.019 1.438 6.063.543 2.234.543 2.234 2.562 4.937.414 2.48.414 2.48.625 5.188l.227 2.73L751 851h2l.586 2.117.789 2.758.773 2.742c.712 2.529.712 2.529 2.852 4.383.344 2.5.442 4.972.559 7.492.246 2.577.246 2.577 1.964 4.406 2.095 2.982 1.772 5.258 1.664 8.852l-.082 3.547L762 890c-9.417.62-17.072-1.144-26-4a996 996 0 0 0-7.5-2.187l-3.344-.981c-4.7-1.24-9.36-2.007-14.218-2.207l-2.473-.148c-4.572.97-6.83 4.627-9.422 8.285l-1.856 2.926c-5.202 7.96-10.825 15.292-17.742 21.84-1.675 1.615-1.675 1.615-3.445 4.472-2.812.5-2.812.5-6 0-6.433-5.087-8.574-12.29-11-19.812l-.75-2.292q-1.514-4.626-3.018-9.256c-1.434-4.364-2.962-8.647-4.732-12.89l-1.219-2.953C647.1 865.549 647.1 865.549 643 862l-.937 1.875L640 868l-8-2c-4.497 4.402-4.497 4.402-6.437 10.188-.747 5.056-3.089 8.437-5.727 12.761a112 112 0 0 0-4.461 8.176l-1.195 2.414a223 223 0 0 0-2.422 5.234L610.5 907.5l-1.094 2.469c-1.793 2.59-3.485 3.006-6.406 4.031-1.344 2.017-1.344 2.017-2 4-3.252.366-4.605.292-7.281-1.687C582 904.099 582 904.099 582 898l-3-1c-1.832-2.258-1.832-2.258-3.812-5.125l-2.145-2.996a453 453 0 0 1-3.617-5.164c-2.672-3.565-3.68-4.593-8.239-5.34-5.841.546-11.199 2.725-16.5 5.125-4.298 1.749-8.6 2.798-13.113 3.852-2.54.541-2.54.541-4.574 1.648-2.84.286-5.654.512-8.5.688l-2.379.181c-2.037.128-4.08.137-6.121.131l-2-2c.206-2.727.567-5.306 1-8l.344-2.996c.87-6.977 2.56-12.822 5.426-19.234 2.474-5.57 4.126-11.322 5.668-17.207 1.188-4.465 2.74-8.621 4.519-12.88 1.617-4.159 2.852-8.424 4.113-12.703.93-2.98.93-2.98 2.016-5.625 1.094-2.818 1.35-5.548 1.633-8.543.357-3.571.813-7.128 1.281-10.687l.5-3.867C535 783 535 783 536 780c.067-1.394.085-2.792.063-4.187L536 772l-2.437-.812L531 770l-1-3-2.09-.262c-11.704-1.75-21.004-7.197-28.16-16.738l-1.75-3-2.125-3.312c-1.934-3.4-2.716-6.741-3.383-10.575-.41-2.146-.41-2.146-1.484-4.062-1.537-3.128-1.878-6.394-2.445-9.809-.405-2.427-.405-2.427-2.563-4.242a71 71 0 0 1-.625-4.437C484.13 703.77 480.312 699.227 476 694l-1.871-2.297c-3.41-4.04-7.057-7.324-11.129-10.703a136 136 0 0 1-4.605-5.45c-1.508-1.804-1.508-1.804-4.395-3.55v-2l-4-2v-2l-3-1-1-4-3-1c-4.51-6.622-4.98-13.457-3.622-21.136 2.737-14.103 2.737-14.103 4.622-17.854 4.585-9.216 5.373-21.748 5.375-31.885l.004-2.211c-.09-4.354-.933-7.837-2.379-11.914-.54-3.416-.94-6.834-1.34-10.27-.524-2.962-1.178-5.302-2.2-8.09-1.65-4.748-1.962-9.077-1.897-14.077l.022-2.523c.171-6.372 1.142-11.489 4.415-17.04l1.215-2.207c5.6-9.267 13.905-16.755 22.785-22.793 2.483-2.368 4.83-4.82 7.188-7.312C479 489 479 489 481 489l.688-2c1.075-2.458 2.182-4.45 3.625-6.687 4.178-6.576 7.412-13.183 9.75-20.625 1.385-4.38 2.868-7.223 5.937-10.688.736-1.695 1.47-3.392 2.16-5.105 4.282-9.66 11.355-16.916 21.215-20.84 2.197-.745 4.39-1.433 6.625-2.055l1.688-.507c3.127-.667 6.193-.791 9.386-.958l4.213-.236q3.291-.18 6.582-.349c7.88-.41 15.476-.878 23.131-2.95l3.047-.824c9.728-3.107 18.57-7.567 26.765-13.676 4.266-3.1 8.69-5.273 13.5-7.375l2.068-.904c5.217-2.205 9.532-3.567 15.183-2.909" fill="#05375E"/><path d="M631 476v11h8l1-11c15.736-.807 30.331 3.721 45 9v2l2.375.438C690 488 690 488 692 489c-.477 2.226-.975 3.957-2.125 5.938-1.14 2.688-.642 4.3.125 7.062 2.372-.038 2.372-.038 5-1 2.334-2.958 2.334-2.958 4-6 4.205.551 7.037 3.069 10.25 5.625l1.76 1.39q1.73 1.374 3.452 2.758a160 160 0 0 0 3.745 2.883c4.876 3.86 8.495 8.605 12.23 13.531l1.616 2.128 1.506 2.04 1.353 1.833C736 529 736 529 737 533l-8 5 1 5c5.309-.582 5.309-.582 10-3h3c8.828 15.471 13.714 34.144 13 52l-13 1v7l13 1c-.502 16.73-3.192 37.506-14 51-3.375-.547-5.082-1.055-8-3-2.646.312-2.646.312-5 1-.045 2.379-.045 2.379 1 5 2.23 1.678 4.474 2.76 7 4-.518 4.445-2.064 6.742-4.937 10.125l-2.438 2.871L727 675l-1.371 1.579c-5.826 6.681-5.826 6.681-8.629 9.421h-2v2a100 100 0 0 1-6.25 4.688l-1.777 1.298c-4.323 3.016-4.323 3.016-7.239 3.006-2.733-1.563-3.813-3.848-5.39-6.496L693 689h-4c-.878 2.204-.878 2.204-1 5a107 107 0 0 0 4 6v3c-2.647 1.46-3.894 2-7 2v2a152 152 0 0 1-19.187 6.188l-1.977.504c-7.644 1.873-14.989 2.43-22.836 2.308l-1-11h-7l-1 11c-18.382.438-35.941-3.881-52-13-.17-4.289.457-5.609 3-9 .251-2.668.251-2.668 0-5l-6-1-.812 2.25c-1.13 2.616-2.397 4.552-4.188 6.75-5.49-1.387-8.806-3.952-12.937-7.625l-1.876-1.642c-4.46-3.959-8.455-8.08-12.187-12.733l-2.379-2.758-2.496-2.93-2.305-2.699c-1.85-2.657-2.464-4.429-2.82-7.613a466 466 0 0 1 3.375-2.5l1.898-1.406C542 654 542 654 544 654l-1-5c-4.754-.332-7.044.434-11 3h-3c-4.756-8.78-7.972-17.516-10.437-27.187-.26-.985-.518-1.969-.784-2.983-1.719-7.082-2-13.546-1.779-20.83l13-1v-7l-13-1c-.68-18.132 3.605-36.397 13-52 2.628.487 4.18 1.12 6.438 2.625 2.496 1.652 2.496 1.652 5.375 1.063L543 543c.672-2.283.672-2.283 0-5-2.48-2.013-5.176-3.519-8-5 .529-4.497 2.333-7.465 5-11l1.762-2.36c5.12-6.637 10.491-13.075 18.238-16.64v-2c2.082-1.727 2.082-1.727 4.813-3.625l2.707-1.914C570 494 570 494 573 494l4 7h5l1-3-1.5-2.937C580 492 580 492 579.875 489.875c4.116-6.86 15.824-8.914 23.125-10.875 9.34-2.21 18.385-3.406 28-3" fill="#F6F7F7"/><path d="m827 528 3 2c.372 1.873.372 1.873.363 4.148l.003 2.53-.053 2.697-.03 2.743c-.17 8.868-1.501 17.19-3.78 25.745-.88 3.732-1.438 7.52-2.038 11.305a77 77 0 0 1-1.018 5.176c-.809 4.806.092 9.539.678 14.343l.402 3.407c.837 6.541 2.095 12.593 4.16 18.843 2.45 7.6 2.794 14.916 2.813 22.875l.018 3.42c-.086 5.627-.286 9.023-3.518 13.768l-1.691 2.578c-5.278 7.537-11.303 13.245-18.336 19.113-9.937 8.434-18.656 17.152-22.328 29.871C774.39 750.458 774.39 750.458 763 758l-3.062 2.125c-8.765 4.695-19.027 6.266-28.782 7.383-3.224.503-6.095 1.376-9.156 2.492.371 3.768.852 7.384 2 11a101 101 0 0 0 6 3c1.83 3.162 2.902 6.526 4 10l.805 2.492a237 237 0 0 1 2.976 10.512l.782 2.996.69 2.75c.616 2.418.616 2.418 2.747 4.25.563 2.277.563 2.277 1 4.938.575 3.483.99 5.048 3 8.062.583 2.007 1.004 4.019 1.438 6.063.543 2.234.543 2.234 2.562 4.937.414 2.48.414 2.48.625 5.188l.227 2.73L751 851h2l.586 2.117.789 2.758.773 2.742c.712 2.529.712 2.529 2.852 4.383.344 2.5.442 4.972.559 7.492.246 2.577.246 2.577 1.964 4.406 2.095 2.982 1.772 5.258 1.664 8.852l-.082 3.547L762 890c-9.417.62-17.072-1.144-26-4a996 996 0 0 0-7.5-2.187l-3.344-.981c-4.7-1.24-9.36-2.007-14.218-2.207l-2.473-.148c-4.572.97-6.83 4.627-9.422 8.285l-1.856 2.926c-5.202 7.96-10.825 15.292-17.742 21.84-1.675 1.615-1.675 1.615-3.445 4.472-2.812.5-2.812.5-6 0-6.433-5.087-8.574-12.29-11-19.812l-.75-2.292q-1.514-4.626-3.018-9.256c-1.434-4.364-2.962-8.647-4.732-12.89l-1.219-2.953C647.1 865.549 647.1 865.549 643 862l-.937 1.875L640 868l-8-2c-4.497 4.402-4.497 4.402-6.437 10.188-.747 5.056-3.089 8.437-5.727 12.761a112 112 0 0 0-4.461 8.176l-1.195 2.414a223 223 0 0 0-2.422 5.234L610.5 907.5l-1.094 2.469c-1.793 2.59-3.485 3.006-6.406 4.031-1.344 2.017-1.344 2.017-2 4-3.252.366-4.605.292-7.281-1.687C582 904.099 582 904.099 582 898l-3-1c-1.832-2.258-1.832-2.258-3.812-5.125l-2.145-2.996a453 453 0 0 1-3.617-5.164c-2.672-3.565-3.68-4.593-8.239-5.34-5.841.546-11.199 2.725-16.5 5.125-4.298 1.749-8.6 2.798-13.113 3.852-2.54.541-2.54.541-4.574 1.648-2.84.286-5.654.512-8.5.688l-2.379.181c-2.037.128-4.08.137-6.121.131l-2-2c.206-2.727.567-5.306 1-8l.344-2.996c.87-6.977 2.56-12.822 5.426-19.234 2.474-5.57 4.126-11.322 5.668-17.207 1.188-4.465 2.74-8.621 4.519-12.88 1.617-4.159 2.852-8.424 4.113-12.703.93-2.98.93-2.98 2.016-5.625 1.094-2.818 1.35-5.548 1.633-8.543.357-3.571.813-7.128 1.281-10.687l.5-3.867C535 783 535 783 536 780c.067-1.394.085-2.792.063-4.187L536 772l-2.437-.812L531 770l-1-3-2.09-.262c-11.704-1.75-21.004-7.197-28.16-16.738l-1.75-3-2.125-3.312c-1.934-3.4-2.716-6.741-3.383-10.575-.41-2.146-.41-2.146-1.484-4.062-1.537-3.128-1.878-6.394-2.445-9.809-.405-2.427-.405-2.427-2.563-4.242a71 71 0 0 1-.625-4.437C484.13 703.77 480.312 699.227 476 694l-1.871-2.297c-3.41-4.04-7.057-7.324-11.129-10.703a136 136 0 0 1-4.605-5.45c-1.508-1.804-1.508-1.804-4.395-3.55v-2h2v2l1.676.746c18.73 10.105 30.673 28.386 36.721 48.158.938 3.261 1.733 6.55 2.54 9.846 2.597 10.074 6.807 20.673 16.063 26.25 8.211 3.87 16.082 4.729 25.063 5.125 20.216 1.019 33.554 6.015 49.23 18.773 2.214 1.72 4.153 2.993 6.707 4.102v2c10.554 3.377 21.711 3.2 32-1l1.89-1.078c5.369-2.346 12.51-1.696 18.008-.059a99 99 0 0 1 4.883 2.164c8.037 3.524 18.772 3.303 26.844.16 2.443-1.087 4.393-2.2 6.523-3.824C686 782 686 782 688 782v-2a109 109 0 0 1 6.375-4.812l1.932-1.362c10.457-7.243 20.03-10.942 32.755-11.264 12.49-.523 24.796-1.464 34.938-9.562 2.418-2.683 2.418-2.683 4-5h2l.75-3.375c.79-3.193 1.825-6.106 3.125-9.125 1.82-4.367 2.989-8.78 4.063-13.375C781.624 706.739 788.527 693.219 801 683h2v-2c1.427-1.27 2.92-2.465 4.438-3.625l2.765-2.176L813 673c7.896-6.253 15.358-12.83 16.71-23.309.942-13.313-3.246-24.775-7.783-37.1-7-19.568-3.103-37.533 3.424-56.644 3.017-9.05 3.742-18.621 1.649-27.947" fill="#05375E"/><path d="m634.875 458.75 3.816-.023c30.59.062 61.262 11.056 84.309 31.273l2.105 1.773c7.845 6.67 15.046 13.868 21.395 21.977l1.277 1.608c2.585 3.392 4.092 6.538 5.223 10.642h2c7.864 14.682 13.416 29.508 16 46l.559 3.43c.731 6.12.665 12.294.681 18.449.01 2.154.04 4.308.072 6.463.272 35.693-16.416 69.8-41.062 94.97-11.337 11.208-24.105 19.187-38.509 25.865a117 117 0 0 0-4.452 2.249c-9.129 4.65-19.333 6.458-29.289 8.574l-2.333.55c-5.497.927-11.129.676-16.692.69a686 686 0 0 0-6.727.072c-18.026.133-35.945-3.466-52.248-11.312q-2.34-1.038-4.687-2.062A204 204 0 0 1 566 715v-2l-2.578-.684c-4.043-1.555-6.848-3.659-10.172-6.379l-1.857-1.498A710 710 0 0 1 546 700l-2.746-2.234c-7.15-6.087-12.72-13.233-18.254-20.766l-1.746-2.371c-20.521-29.42-29.312-66.742-23.067-102.192q.847-3.733 1.813-7.437l.552-2.229c2.33-9.366 5.06-18.138 9.448-26.771l1.367-2.91c3.54-7.416 7.536-14.616 12.633-21.09h2l.813-1.75c1.216-2.306 2.49-4.27 4.187-6.25h2l.77-1.746c10.059-18.426 38.957-32.073 58.247-37.859 4.623-1.3 9.276-2.444 13.983-3.395l2.636-.544c8.11-1.525 16.002-1.756 24.239-1.706m-41.062 23.188-2.105.729c-4.365 1.605-7.933 3.614-11.708 6.333.672 3.806 1.727 7.352 3 11-1 1-1 1-3.562 1.063L577 501l-4-7c-5.288.33-9.241 3.484-13 7v2l-1.73.777c-7.696 4.146-13.22 11.284-18.27 18.223-.52.643-1.042 1.286-1.578 1.95-2.03 2.571-3.364 4.431-3.672 7.737 1.929 3.569 4.644 4.543 8.25 6.313v5c-2.125.75-2.125.75-5 1a375 375 0 0 1-6-4c-2.085-.036-2.085-.036-4 1-9.467 14.045-12.39 34.605-12 51l13 1v7l-13 1c-.256 8.422.425 15.678 2.563 23.813l.799 3.134c2.283 8.549 5.425 16.275 9.638 24.053 3.375-.547 5.082-1.055 8-3 3.188-.125 3.188-.125 6 0l1 5-1.687.813c-2.51 1.288-4.906 2.716-7.313 4.187.496 4.636 2.311 7.003 5.313 10.5l2.363 2.781L545 675l1.98 2.531c4.158 5.082 8.948 9.18 14.082 13.219l1.854 1.496 1.807 1.426 1.617 1.284c1.86 1.17 3.515 1.62 5.66 2.044a466 466 0 0 0 2.5-3.375l1.406-1.898c1.272-1.668 1.272-1.668 1.094-3.727l6 1c-.75 6.75-.75 6.75-3 9-.167 2.584-.167 2.584 0 5 7.334 4.282 14.673 7.006 22.813 9.313l2.711.77c6.995 1.917 13.632 3.061 20.914 2.98l3.183-.028L632 716l1-11h7l1 11c15.381.53 29.874-3.144 44-9v-2l2.375-.437c2.59-.441 2.59-.441 4.625-1.563-.407-2.934-.733-4.67-2.625-7-1.375-2-1.375-2-1.062-4.75L689 689c2.188.063 2.188.063 5 1 1.932 2.172 3.482 4.526 5 7 4.505-.535 7.195-2.26 10.813-4.937l2.957-2.153L715 688v-2l1.668-.656c3.098-1.785 5.282-4.21 7.644-6.844l1.457-1.61c7.807-7.987 7.807-7.987 11.231-17.89l-3.437-1.687c-3.433-1.931-3.433-1.931-4.5-5.063L729 650c2.25-.687 2.25-.687 5-1a72 72 0 0 1 4 3h4c10.684-13.276 13.365-34.487 14-51l-13-1v-7l13-1c-.44-16.117-2.959-31.354-10-46l-.984-2.062A150 150 0 0 0 743 540c-3.375.547-5.082 1.055-8 3-2.687.125-2.687.125-5 0l-1-5 8-5c-1.413-5.525-4.074-9.122-7.625-13.437l-1.647-2.02c-3.896-4.705-7.881-8.811-12.728-12.543q-1.62-1.332-3.238-2.668-1.755-1.418-3.512-2.832l-1.683-1.39c-3.06-2.461-3.06-2.461-6.817-3.083-2.866 1.593-4.108 4.217-5.75 6.973l-5-1c.563-3.375 1.48-5.959 3-9v-3c-2.647-1.46-3.894-2-7-2v-2c-22.005-7.262-22.005-7.262-45-9l-1 11h-8v-11c-12.893-.545-25.05 1.712-37.187 5.938" fill="#07375D"/><path d="m633.938 442.5 2.418.001c16.674.05 33.28 1.56 48.644 8.499 1.467.44 2.945.847 4.438 1.188L693 453v2l2.105.34c3.265.744 6.131 1.904 9.207 3.223l3.239 1.378c.808.35 1.616.7 2.449 1.059v2l2.5.625c3.794 1.49 6.418 3.405 9.57 5.938 1.903 1.417 3.781 2.444 5.93 3.437v2l2.259.795c2.762 1.214 4.41 2.429 6.596 4.478l2.122 1.982 2.21 2.12 2.291 2.183c23.88 23.048 23.88 23.048 25.522 35.442h2c6.299 14.1 11.672 27.864 15 43l.546 2.275c1.985 9.22 1.896 18.524 1.891 27.913l.002 2.69c-.107 40.888-16.122 75.51-43.123 105.652a303 303 0 0 0-3.222 3.67c-9.066 9.827-21.34 17.59-33.094 23.8l-2.977 1.59c-21.652 11.018-43.483 16.824-67.927 16.67-2.03-.01-4.057 0-6.086.013-11.887.015-23.734-.798-35.072-4.586l-1.974-.651A533 533 0 0 1 589 742l-3.945-1.332C579.682 738.811 574.84 737 570 734c-2.191-.696-2.191-.696-4-1v-2l-2.312-.625c-29.248-10.906-52.87-40.122-65.775-67.697A663 663 0 0 1 495 656l-1.309-2.8c-15.434-34.341-14.574-77.584-1.613-112.458 2.83-7.171 6.208-13.994 9.922-20.742l1.746-3.266c9.074-16.345 22.998-31.7 38.067-42.797.7-.519 1.4-1.038 2.12-1.574 6.957-5.108 14.128-9.582 21.919-13.308a103 103 0 0 0 4.609-2.422c6.236-3.371 12.528-5.767 19.289-7.82l2.34-.72c13.928-4.06 27.39-5.672 41.847-5.593M603 462l-2.068.504C576.415 468.57 551.323 482.352 535 502v2l-3 1c-3.033 3.055-3.033 3.055-4 7l-3 1a91 91 0 0 0-4.25 6.688l-1.194 2.036c-13.099 22.603-21.032 46.281-20.806 72.588l.027 3.591c.451 34.165 13.114 62.675 34.223 89.097l1.934 2.45c5.346 6.403 11.776 11.257 18.399 16.254 1.685 1.31 3.3 2.68 4.917 4.073 2.757 2.228 4.273 2.916 7.75 3.223v2c5.739 2.98 11.489 5.709 17.523 8.035q2.403.935 4.766 1.961c5.176 2.224 10.385 3.815 15.836 5.192l1.99.505c22.057 5.356 48.372 4.213 69.885-2.693l3.66-1.164c34.962-12.49 63.23-37.184 79.34-70.586 3.71-7.935 6.913-15.726 9-24.25l.855-3.2c2.779-10.603 3.382-20.767 3.395-31.675l.005-2.24c.002-10.932-.628-21.233-3.255-31.885l-.469-2.512c-2.294-12.29-7.75-23.524-13.531-34.488h-2l-.777-2.703C748.906 514.354 740.425 506.889 734 500l-2.148-2.312C726.095 491.702 719.762 486.8 713 482l-2.379-1.723c-5.565-3.892-11.378-6.64-17.621-9.277q-1.959-.862-3.918-1.727C662.524 457.745 631.223 454.792 603 462" fill="#F0F3F4"/><path d="m827 528 3 2c.372 1.873.372 1.873.363 4.148l.003 2.53-.053 2.697-.03 2.743c-.17 8.868-1.501 17.19-3.78 25.745-.88 3.732-1.438 7.52-2.038 11.305a77 77 0 0 1-1.018 5.176c-.809 4.806.092 9.539.678 14.343l.402 3.407c.837 6.541 2.095 12.593 4.16 18.843 2.45 7.6 2.794 14.916 2.813 22.875l.018 3.42c-.086 5.627-.286 9.023-3.518 13.768l-1.691 2.578c-5.278 7.537-11.303 13.245-18.336 19.113-9.937 8.434-18.656 17.152-22.328 29.871C774.39 750.458 774.39 750.458 763 758l-3.062 2.125c-8.765 4.695-19.027 6.266-28.782 7.383-3.224.503-6.095 1.376-9.156 2.492.371 3.768.852 7.384 2 11a101 101 0 0 0 6 3c1.83 3.162 2.902 6.526 4 10l.805 2.492a237 237 0 0 1 2.976 10.512l.782 2.996.69 2.75c.616 2.418.616 2.418 2.747 4.25.414 2.383.414 2.383.625 5.125l.227 2.758L743 827c-1.73-2.596-2.63-4.49-3.621-7.387l-.897-2.595-.92-2.706q-.902-2.631-1.808-5.261l-.889-2.583c-1.23-3.512-2.549-6.987-3.865-10.468-.574-1.6-1.14-3.203-1.687-4.812l-.762-2.208C728 787 728 787 728 784c-10.655 2.61-19.575 5.804-27.75 13.375-11.046 10.08-23.191 14.395-37.945 14.027-5.196-.322-9.826-1.918-14.714-3.603-9.07-3.085-15.271-2.389-24.048 1.228-10.325 3.95-23.419 3.062-33.543-1.027v-2c-1.313-.39-1.313-.39-2.652-.79-3.335-1.205-5.946-2.654-8.91-4.585l-2.754-1.773c-2.667-1.84-5.166-3.815-7.684-5.852-6.99-5.109-14.276-8.111-23-8l-.58 1.769q-1.33 4.054-2.67 8.106l-.91 2.781c-1.496 4.52-3.06 8.978-4.86 13.387-2.06 5.057-3.746 10.198-5.418 15.394a559 559 0 0 1-7.902 22.594l-.88 2.354q-2.178 5.804-4.387 11.595a2546 2546 0 0 0-1.635 4.329l-.782 2.074c-1.345 3.647-2.43 7.213-3.171 11.027C511 884 511 884 508 886c1.022-11.751 3.612-21.732 8.11-32.707 2.105-5.143 3.718-10.201 5.113-15.582.992-3.462 2.348-6.708 3.734-10.027 1.617-4.16 2.852-8.425 4.113-12.704.93-2.98.93-2.98 2.016-5.625 1.094-2.818 1.35-5.548 1.633-8.543.357-3.571.813-7.128 1.281-10.687l.5-3.867C535 783 535 783 536 780c.067-1.394.085-2.792.063-4.187L536 772l-2.437-.812L531 770l-1-3-2.09-.262c-11.704-1.75-21.004-7.197-28.16-16.738l-1.75-3-2.125-3.312c-1.934-3.4-2.716-6.741-3.383-10.575-.41-2.146-.41-2.146-1.484-4.062-1.537-3.128-1.878-6.394-2.445-9.809-.405-2.427-.405-2.427-2.563-4.242a71 71 0 0 1-.625-4.437C484.13 703.77 480.312 699.227 476 694l-1.871-2.297c-3.41-4.04-7.057-7.324-11.129-10.703a136 136 0 0 1-4.605-5.45c-1.508-1.804-1.508-1.804-4.395-3.55v-2h2v2l1.676.746c18.73 10.105 30.673 28.386 36.721 48.158.938 3.261 1.733 6.55 2.54 9.846 2.597 10.074 6.807 20.673 16.063 26.25 8.211 3.87 16.082 4.729 25.063 5.125 20.216 1.019 33.554 6.015 49.23 18.773 2.214 1.72 4.153 2.993 6.707 4.102v2c10.554 3.377 21.711 3.2 32-1l1.89-1.078c5.369-2.346 12.51-1.696 18.008-.059a99 99 0 0 1 4.883 2.164c8.037 3.524 18.772 3.303 26.844.16 2.443-1.087 4.393-2.2 6.523-3.824C686 782 686 782 688 782v-2a109 109 0 0 1 6.375-4.812l1.932-1.362c10.457-7.243 20.03-10.942 32.755-11.264 12.49-.523 24.796-1.464 34.938-9.562 2.418-2.683 2.418-2.683 4-5h2l.75-3.375c.79-3.193 1.825-6.106 3.125-9.125 1.82-4.367 2.989-8.78 4.063-13.375C781.624 706.739 788.527 693.219 801 683h2v-2c1.427-1.27 2.92-2.465 4.438-3.625l2.765-2.176L813 673c7.896-6.253 15.358-12.83 16.71-23.309.942-13.313-3.246-24.775-7.783-37.1-7-19.568-3.103-37.533 3.424-56.644 3.017-9.05 3.742-18.621 1.649-27.947" fill="#F2F5F5"/><path d="M634.938 498.75C638 499 638 499 641 501c.286 2.87.378 5.525.34 8.397l.002 2.631a1163 1163 0 0 1-.049 8.636q-.009 2.989-.013 5.978c-.011 5.25-.04 10.501-.074 15.752-.03 5.356-.044 10.711-.06 16.067q-.05 15.77-.146 31.539h2c2.484 3.726 2.38 5.587 2 10-2.2 4.6-2.2 4.6-5 6a85 85 0 0 1-5.062.125l-2.723.008C630 606 630 606 629 605a94 94 0 0 0-5.207-.174l-3.367-.04-3.668-.032-7.606-.1a5591 5591 0 0 0-12.055-.13c-3.863-.04-7.726-.092-11.59-.145l-3.655-.026-3.387-.05-2.985-.031C573 604 573 604 570 602c-.675-7.093-.675-7.093 1.19-9.597 2.464-1.91 4.083-1.794 7.184-1.82l3.326-.05 3.59-.01c1.213-.015 2.427-.03 3.678-.047 3.886-.047 7.771-.075 11.657-.101q5.839-.054 11.678-.123 3.637-.04 7.275-.063l3.307-.031 2.927-.02c2.165.106 2.165.106 3.188-1.138.115-2.728.165-5.431.174-8.16l.02-2.592q.021-2.794.036-5.59.026-4.417.065-8.836.105-12.564.182-25.128.049-7.675.12-15.351.024-2.933.037-5.865c.012-2.73.036-5.459.063-8.189l.002-2.467c.1-7.635.1-7.635 5.239-8.072" fill="#09365C"/><path d="M635 826c2.313 2.09 3.514 3.775 4.543 6.71l.802 2.24.842 2.425q.933 2.606 1.868 5.21l.971 2.723c1.538 4.253 3.163 8.471 4.787 12.692 3.16 8.25 6.249 16.526 9.312 24.813l1.286 3.476q2.752 7.437 5.487 14.879l1.602 4.332 1.344 3.656c1.099 2.975 1.099 2.975 3.156 5.844l-1 3c-6.189-5.687-8.487-12.02-11-19.812l-.75-2.292q-1.514-4.626-3.018-9.256c-1.434-4.364-2.962-8.647-4.732-12.89l-1.219-2.953C647.1 865.549 647.1 865.549 643 862l-.937 1.875L640 868l-8-2c-4.497 4.402-4.497 4.402-6.437 10.188-.747 5.056-3.089 8.437-5.727 12.761a112 112 0 0 0-4.461 8.176l-1.2 2.414a163 163 0 0 0-2.382 5.234c-3.11 6.892-3.11 6.892-7.106 8.852L602 914c2.086-7.354 4.59-14.485 7.313-21.625l2.402-6.352 1.179-3.106A2798 2798 0 0 0 617.375 871l2.625-7 1.313-3.504a8647 8647 0 0 1 6.558-17.435l1.519-4.035q1.102-2.934 2.212-5.866l1.322-3.511C634 827 634 827 635 826" fill="#F2F5F6"/><path d="m827 528 3 2c.372 1.873.372 1.873.363 4.148l.003 2.53-.053 2.697-.03 2.743c-.17 8.868-1.501 17.19-3.78 25.745-.88 3.732-1.438 7.52-2.038 11.305a77 77 0 0 1-1.018 5.176c-.809 4.806.092 9.539.678 14.343l.402 3.407c.837 6.541 2.095 12.593 4.16 18.843 2.45 7.6 2.794 14.916 2.813 22.875l.018 3.42c-.086 5.627-.286 9.023-3.518 13.768l-1.691 2.578c-5.278 7.537-11.303 13.245-18.336 19.113-9.937 8.434-18.656 17.152-22.328 29.871C774.39 750.458 774.39 750.458 763 758l-3.062 2.125c-7.097 3.855-15.96 5.914-23.938 6.875l-2-1c-8.566-.61-16.186-.827-23.984 3.223-2.428.936-3.606.64-6.016-.223l3.5-1.875 1.969-1.055c6.491-2.745 12.648-3.332 19.593-3.508 12.49-.523 24.796-1.464 34.938-9.562 2.418-2.683 2.418-2.683 4-5h2l.75-3.375c.79-3.193 1.825-6.106 3.125-9.125 1.82-4.367 2.989-8.78 4.063-13.375C781.624 706.739 788.527 693.219 801 683h2v-2c1.427-1.27 2.92-2.465 4.438-3.625l2.765-2.176L813 673c7.896-6.253 15.358-12.83 16.71-23.309.942-13.313-3.246-24.775-7.783-37.1-7-19.568-3.103-37.533 3.424-56.644 3.017-9.05 3.742-18.621 1.649-27.947" fill="#E1EAEE"/><path d="m636.563 390.25 2.253.203c2.61.654 4.144 1.826 6.184 3.547l-3.367-.14c-15.047-.448-23.285 3.53-35.633 12.14-21.352 14.683-38.586 18.307-64.244 18.622l-2.207.036c-2.005.032-4.01.052-6.017.07-3.513.27-6.257 1.009-9.532 2.272l-2.055.754c-11.415 5.07-15.976 15.442-20.258 26.434-1.606 4.236-3.053 8.489-4.246 12.859C492.014 485.52 479.335 497.313 464 508c-11.141 8.035-11.141 8.035-17 20h-2c2.726-13.086 14.422-22.74 25-30 2.483-2.368 4.83-4.82 7.188-7.312C479 489 479 489 481 489l.688-2c1.075-2.458 2.182-4.45 3.625-6.687 4.178-6.576 7.412-13.183 9.75-20.625 1.385-4.38 2.868-7.223 5.937-10.688.736-1.695 1.47-3.392 2.16-5.105 4.282-9.66 11.355-16.916 21.215-20.84 2.197-.745 4.39-1.433 6.625-2.055l1.688-.507c3.127-.667 6.193-.791 9.386-.958l4.213-.236q3.291-.18 6.582-.349c7.88-.41 15.476-.878 23.131-2.95l3.047-.824c9.728-3.107 18.57-7.567 26.765-13.676 4.266-3.1 8.69-5.273 13.5-7.375l2.068-.904c5.193-2.194 9.551-3.559 15.183-2.971" fill="#EDF5F8"/><path d="M444 528c1.29 3.81.851 7.272.625 11.25-.288 9.908 2.638 18.683 5.648 28.023 6.291 19.89 3.772 37.856-4.273 56.727-4.632 11.236-4.367 24.425-1 36h2c1.727 1.969 1.727 1.969 3.625 4.5l1.914 2.531L454 669h-3l-1-3-3-1-1-4-3-1c-4.51-6.622-4.98-13.457-3.622-21.136 2.737-14.103 2.737-14.103 4.622-17.854 4.585-9.216 5.373-21.748 5.375-31.885l.004-2.211c-.09-4.354-.933-7.837-2.379-11.914-.54-3.416-.94-6.834-1.34-10.27-.525-2.965-1.178-5.285-2.207-8.07-1.695-4.864-1.867-9.296-1.765-14.41l-.01-2.496c.038-4.354.301-7.793 2.322-11.754" fill="#D2E0E6"/><path d="m636.563 390.25 2.253.203c2.61.654 4.144 1.826 6.184 3.547l-3.367-.14c-15.047-.448-23.285 3.53-35.633 12.14-16.688 11.476-29.284 17.364-49.785 17.206-2.473-.019-4.945-.02-7.418-.02q-2.375-.007-4.75-.018l-2.223-.003c-3.729-.035-7.197-.276-10.824-1.165 3.628-2.247 6.861-2.36 11.074-2.562l2.07-.112c2.181-.117 4.362-.223 6.543-.326 12.78-.571 12.78-.571 25.313-3l3.047-.824c9.728-3.107 18.57-7.567 26.765-13.676 4.266-3.1 8.69-5.273 13.5-7.375l2.068-.904c5.193-2.194 9.551-3.559 15.183-2.971" fill="#F1F7F9"/><path d="M543 790c-1.597 5.827-3.522 11.487-5.687 17.125-2.491 6.503-4.718 13.067-6.875 19.688a553 553 0 0 1-7.77 22.195l-.882 2.358a2215 2215 0 0 1-4.394 11.616q-.819 2.163-1.634 4.327l-.782 2.074c-1.345 3.647-2.43 7.213-3.171 11.027C511 884 511 884 508 886c1.022-11.751 3.612-21.732 8.11-32.707 2.105-5.143 3.718-10.201 5.113-15.582.995-3.47 2.354-6.724 3.746-10.05 1.16-2.995 2.066-6.017 2.968-9.098 1.829-6.133 4.255-11.82 7.063-17.563h2l-.187-3.25c.241-4.834.968-7.75 6.187-7.75" fill="#ECF4F7"/><path d="M704 874c8.452.906 16.238 2.987 24.25 5.75 9.84 3.342 19.782 6.316 29.75 9.25v1c-7.85.628-14.552-1.706-22-4q-3.747-1.104-7.5-2.187l-3.344-.981c-4.7-1.24-9.36-2.007-14.218-2.207l-2.473-.148c-4.572.97-6.83 4.627-9.422 8.285l-1.856 2.926c-5.594 8.559-11.746 16.29-19.187 23.312 0-3.42.548-4.157 2.457-6.887l1.608-2.322 1.747-2.479 1.77-2.544q1.81-2.607 3.63-5.207c2.68-3.839 5.327-7.7 7.976-11.561l2.667-3.875A551 551 0 0 0 704 874" fill="#D1DEE5"/><path d="M454 670h2v2l1.676.746c18.72 10.1 30.669 28.37 36.708 48.136 1.334 4.588 2.499 9.22 3.667 13.852 1.188 4.088 2.964 7.517 4.949 11.266l-1 2c-1.75-.062-1.75-.062-4-1-3.18-4.489-4.57-8.495-5.508-13.887-.41-2.146-.41-2.146-1.484-4.062-1.537-3.128-1.878-6.394-2.445-9.809-.405-2.427-.405-2.427-2.563-4.242a71 71 0 0 1-.625-4.437C484.13 703.77 480.312 699.227 476 694l-1.871-2.297c-3.41-4.04-7.057-7.324-11.129-10.703a136 136 0 0 1-4.605-5.45c-1.508-1.804-1.508-1.804-4.395-3.55z" fill="#E2EBF0"/><path d="M655 398c4.517.531 7.387 2.29 11 5l1 2c10.273 6.463 22.368 12.888 34.625 13.563 6.037.344 6.037.344 8.2.937 2.698.62 5.239.681 8.007.746l3.42.1q3.543.09 7.086.172c7.662.23 14.215.54 20.787 4.857l2.008 1.316A97 97 0 0 1 758 432l-1 2-1.906-1.46-2.594-1.915-2.531-1.898c-5.936-3.452-12.165-4.014-18.914-4.036l-4.516-.076q-3.485-.042-6.969-.071c-12.944-.126-25.75-.77-37.445-6.981l-1.968-1.011c-9.042-4.845-17.99-11.18-25.157-18.552" fill="#DCE7ED"/><path d="M567 873c1.52 1.8 1.52 1.8 2.813 4.313 2.096 3.803 4.282 7.325 6.875 10.812 3.983 5.375 7.775 10.866 11.543 16.393 2.194 3.212 4.395 6.398 6.769 9.482l-1 2c-4.817-4.443-9.174-9.01-12-15v-3l-3-1c-1.832-2.258-1.832-2.258-3.812-5.125l-2.145-2.996a453 453 0 0 1-3.617-5.164c-2.672-3.565-3.68-4.593-8.239-5.34-5.841.546-11.199 2.725-16.5 5.125-4.298 1.749-8.6 2.798-13.113 3.852-2.54.541-2.54.541-4.574 1.648-2.546.232-5.074.419-7.625.563l-2.14.13q-2.618.158-5.235.307c2.995-1.997 5.26-2.802 8.688-3.812l3.523-1.055L528 884c2.607-.804 5.21-1.62 7.813-2.437q6.341-1.991 12.69-3.958l2.218-.687q2.113-.655 4.227-1.306c9.485-2.946 9.485-2.946 12.052-2.612" fill="#E0ECF1"/><path d="m827 528 3 2c.372 1.873.372 1.873.363 4.148l.003 2.53-.053 2.697-.03 2.743c-.17 8.879-1.513 17.202-3.783 25.769-1.342 5.67-2.113 11.496-2.965 17.258l-.472 2.98-.403 2.695C822 593 822 593 819 595c-.91-12.858 1.403-23.416 5.269-35.646 3.26-10.5 5.137-20.488 2.731-31.354" fill="#E5EDF0"/><path d="M770 457c1.813.5 1.813.5 4 2 .79 1.91 1.568 3.828 2.223 5.79 1.255 3.57 3.038 6.855 4.777 10.21q1.098 2.154 2.188 4.313l.98 1.925C785 483 785 483 786 486l2.375.875c3.342 1.432 3.794 3.05 5.625 6.125a187 187 0 0 0 6 4 283 283 0 0 1 5 5c1.968 1.71 3.978 3.354 6 5l-1 2c-15.84-11.163-28.578-21.616-36-40l-1.191-2.844C770 459.346 770 459.346 770 457" fill="#DDE8ED"/><path d="M454 670h2v2l1.676.746c11.003 5.936 20.557 16.121 27.324 26.504l1.17 1.79c2.056 3.285 3.366 6.1 3.83 9.96h-3l-1.031-2.055c-4.18-8.027-8.948-15.89-16.094-21.633-2.87-2.309-4.96-4.713-7.285-7.539-2.202-2.455-4.686-4.47-7.27-6.511L454 672z" fill="#DFEBEF"/><path d="m655 809-3 2c-3.687-.875-3.687-.875-7-2v-2l-3 1a100 100 0 0 1-4.187.5l-2.41.258q-2.26.229-4.524.422c-3.4.331-5.997.875-9.11 2.32-3.981 1.767-7.644 2.012-11.957 2.125-4.06.15-7.862.376-11.812 1.375-2.25-.937-2.25-.937-4-2l1-2-2-1 1.92.048c18.053.913 18.053.913 35.103-4.126 7.88-3.675 17.397.417 24.977 3.078" fill="#1B3D56"/><path d="m630 503 2 1c1.108 4.935.94 9.357.516 14.379-.586 8.079-.58 16.141-.543 24.238l.016 3.978q.04 8.25.107 16.498.032 4.118.048 8.237.016 3.853.057 7.706l.01 3.483.023 3.07C632 588 632 588 630 590z" fill="#0C2D49"/><path d="M619 856c2.594 3.815 1.825 6.607 1 11a120 120 0 0 1-2.363 6.605l-.707 1.835c-.74 1.918-1.49 3.833-2.242 5.747q-1.469 3.77-2.926 7.543l-1.425 3.678c-1.644 4.417-3.086 8.884-4.467 13.39C605 908 605 908 603 909a351 351 0 0 1-.125-4.812l-.07-2.708C603 899 603 899 605 896h2v-7l3-1 .41-2.113a273 273 0 0 1 2.028-9.074l.746-3.168C614 871 614 871 616 869c.646-2.59.646-2.59 1.063-5.5.846-5.319.846-5.319 1.937-7.5" fill="#103450"/><path d="m641 592 4 1c.294 4.992.078 7.974-3 12-2.501 1.25-4.274 1.133-7.062 1.125l-2.723.008C630 606 630 606 629 605a96 96 0 0 0-5.254-.205l-3.397-.06-3.697-.051-3.762-.063q-4.959-.082-9.918-.153-5.058-.077-10.115-.161-9.928-.162-19.857-.307v-1q11.553-.231 23.106-.443 5.365-.097 10.731-.205 5.184-.104 10.368-.195a1983 1983 0 0 0 5.854-.118c5.768-.096 11.267-.131 16.941.961.575-3.735 1-7.213 1-11" fill="#2F4E68"/><path d="M689 688c2.188.063 2.188.063 5 1 1.45 1.683 2.616 3.423 3.79 5.309 1.271 1.987 1.271 1.987 4.21 3.691l-2.875-.062c-3.032-.164-3.032-.164-5.125 1.062v-2l-2-1 1 2c.04 2.333.043 4.667 0 7l-2 1-1 3c-7.429 1.286-7.429 1.286-11 0l2-2h4v-2l7-2-.84-1.61-1.097-2.14-1.09-2.11c-.954-2.1-1.68-3.85-1.973-6.14z" fill="#1A3B57"/><path d="M700 880c.95 2.564 1.06 3.798.262 6.453C695.002 897.07 686.568 906.901 678 915c0-3.45.597-4.23 2.527-6.992l1.64-2.37 1.77-2.513 1.78-2.562q1.787-2.569 3.58-5.13c1.958-2.797 3.898-5.603 5.836-8.412q2.428-3.514 4.867-7.021" fill="#E7F0F0"/><path d="M707.124 419.947q2.083.043 4.165.104l2.232.057q2.349.063 4.696.134c2.377.07 4.754.124 7.13.178l4.567.13 2.135.045c6.206.212 11.845 1.343 17.076 4.78l2.008 1.316A97 97 0 0 1 758 432l-1 2-1.8-1.426-2.513-1.886-2.425-1.864c-9.188-5.138-18.893-5.277-29.2-5.386a1137 1137 0 0 1-7.714-.13l-3.406-.037c-2.853-.263-4.523-.792-6.942-2.271 1-1 1-1 4.124-1.053" fill="#F4FCFD"/><path d="m636.563 390.25 2.253.203c2.61.654 4.144 1.826 6.184 3.547l-3.367-.14c-13.697-.408-21.48 2.371-32.848 10.234-3.174 2.172-6.41 4.065-9.785 5.906 2.08-6.413 6.337-8.736 12-12 17.191-8.624 17.191-8.624 25.563-7.75" fill="#EAF4F6"/><path d="m686 419 2.707.84c12.578 3.489 25.004 3.692 37.966 3.744 18.052.141 18.052.141 23.327 5.416l-5 1 1-3-4 1v-2a3017 3017 0 0 1-16.058.11q-2.725.015-5.45.04c-9.741.092-18.948.04-28.492-2.15-2.663-.389-5.325-.697-8-1v-2h2z" fill="#193D56"/><path d="M613 882c1.001 3.503 1.705 6.59 0 10h-2l1 3c.49 7.356-.863 11.795-5 18-2.625.688-2.625.688-5 1 2.097-7.327 4.549-14.477 7.188-21.625l1.115-3.043q1.344-3.668 2.697-7.332" fill="#E1ECEF"/><path d="m780 706 2 1v2h-2l.137 3.938c-.005 4.969-.934 9.313-2.324 14.062l-.673 2.369c-1.675 5.646-3.786 10.75-7.14 15.631-1.84-3.681-1.026-8.108 0-12 1.208-2.57 2.532-5.06 3.86-7.57 1.462-3.115 1.867-6.017 2.14-9.43.669-3.678 2.274-6.698 4-10" fill="#0E3452"/><path d="M445 622c1 2 1 2 .441 3.785l-.878 2.278c-3.197 10.086-2.492 21.869.437 31.937h2c1.727 1.969 1.727 1.969 3.625 4.5l1.914 2.531L454 669h-3l-1-3-3-1-1-4-3-1c-5.12-7.517-4.786-15.045-3.164-23.602q.508-2.482 1.039-4.96l.525-2.457c.464-2.011 1.024-4 1.6-5.981z" fill="#CDDBE1"/><path d="M450 584h2c3.47 6.939 1.013 17.245-.812 24.5l-.501 1.993c-1.115 4.11-2.567 7.812-4.687 11.507l-2 1 .586-2.203C447.763 608.53 449.345 596.62 450 584" fill="#E9F3F5"/><path d="m531 767 3 2a167 167 0 0 0 6 2 500 500 0 0 1-.375 5.313c-.07.986-.14 1.972-.21 2.988C539 782 539 782 537 785c.308 2.153.308 2.153 1 4l2-1-.441 1.707a114 114 0 0 0-1.024 4.617l-.472 2.364-.465 2.386L537 801l-2 1-2 3c-1.158-3.475-.493-5.169.457-8.605.823-3.628 1.04-7.272 1.297-10.977C535 783 535 783 536 780c.067-1.394.085-2.792.063-4.187L536 772l-5-2z" fill="#FDFCFC"/><path d="m750 848 1 3h2l.586 2.117.789 2.758.773 2.742c.712 2.529.712 2.529 2.852 4.383.344 2.5.442 4.972.559 7.492.512 2.913 1.622 4.227 3.441 6.508.188 2.75.188 2.75 0 5l-5-5-3 1c.875-5.75.875-5.75 2-8l-1.395-1.176c-4.702-5.343-4.99-14.03-4.605-20.824" fill="#66859A"/><path d="m534.703 422.023 2.539.076c2.67.082 5.339.179 8.008.276q2.718.087 5.438.172 6.656.212 13.312.453v1l-3.026.06c-3.724.076-7.447.165-11.17.257q-2.413.058-4.825.105c-2.319.046-4.637.104-6.956.164l-2.16.035c-4.306.126-7.853.816-11.863 2.379l-2.125.824c-5.259 2.421-8.443 5.547-11.875 10.176-.621-1.848-.621-1.848-1-4 3.53-4.44 8.124-7.237 13-10l1.579-1.071c3.66-1.405 7.27-1.059 11.124-.906" fill="#D1E0E8"/><path d="M483 568h1q-.14 9.345-.317 18.689-.058 3.18-.105 6.361c-.045 3.044-.103 6.087-.164 9.13l-.035 2.885-.06 2.669-.04 2.355C483 612 483 612 481 614c-.775-5.514-1.193-10.871-1.187-16.437v-2.327c.086-8.9.357-18.746 3.187-27.236" fill="#092F4B"/><path d="M638 503h3v81h-1l-.031-2.673q-.148-12.511-.308-25.024-.083-6.431-.158-12.862-.072-6.216-.156-12.43-.03-2.363-.056-4.725c-.086-7.815-.215-15.53-1.291-23.286" fill="#0A2D49"/><path d="m730 716 2 1a744 744 0 0 1-4 6l-1.375 2.313c-2.282 2.37-4.442 2.272-7.625 2.687l-1 2c-3.878 2.852-7.25 3.534-12 4l1-3a272 272 0 0 1 5.328-2.555c3.578-1.935 6.815-4.254 10.11-6.633l1.9-1.37c2.951-2.076 2.951-2.076 5.662-4.442" fill="#183B59"/><path d="M704 874c5.414.467 9.205 1.243 14 4v3l-2.484-.14-3.266-.11-3.234-.14c-3.654.473-4.738 1.582-7.016 4.39l-2-1c1.002-3.793 1.81-6.715 4-10" fill="#EAF0F3"/><path d="M770 457c1.813.5 1.813.5 4 2 .79 1.91 1.568 3.828 2.223 5.79 1.513 4.303 3.763 8.286 5.886 12.315 1.877 3.625 3.377 6.785 3.891 10.895-3.91-3.575-6.264-6.925-8.562-11.687l-.897-1.851C770 460.797 770 460.797 770 457" fill="#EBF4F7"/><path d="M545 648h1c.125 2.875.125 2.875 0 6l-2 2c-1.946 4.507-1.93 7.248-1 12-.465 2.18-.465 2.18-1 4a346 346 0 0 1-3.562-4.75l-2.004-2.672C535 662 535 662 535.102 659.813c1.491-3.01 4.056-4.189 6.898-5.813h2l-.062-2.437C544 649 544 649 545 648" fill="#EBF2F4"/><path d="M543 648c1 1 1 1 1.563 3.25C544 654 544 654 542.215 655.3a96 96 0 0 1-4.465 2.391L536 659v4h-2l-1-8h2v-3l-3-1c3.815-2.693 6.335-3.424 11-3" fill="#164061"/><path d="M772 740h1c.515 5.274-.85 8.845-4 13-5.37 5.131-11.392 9.514-19 10-3.375-.437-3.375-.437-6-1v-1l2.309-.445c7.85-1.706 15.345-4.032 20.312-10.746L768 748h2z" fill="#DCEAEF"/><path d="M762 648h3v2h-2l-.375 3.375C762 657 762 657 760 659l-.875 2.75c-1.695 4.897-3.793 8.362-8.125 11.25a88 88 0 0 0-3 5l-2-1 1.469-2.281c5.45-8.637 10.093-17.525 14.531-26.719" fill="#D4E1E8"/><path d="M573 884c3.148 2.946 5.471 6.01 7.813 9.625C585.353 900.554 590 907.393 595 914l-1 2c-4.817-4.443-9.174-9.01-12-15v-3l-3-1c-3.676-3.857-5.607-7.63-6-13" fill="#D0E0E7"/><path d="M445 624h2l-.254 2.535c-.787 9.002-.564 17.476.254 26.465l-2-2h-3c-.574-18.34-.574-18.34 3-27" fill="#072F4F"/><path d="M488 546h2c.305 3.866-.194 6.873-1.406 10.5-1.747 5.65-2.566 11.267-3.281 17.125l-.393 3.043q-.47 3.664-.92 7.332h-1l.035-3.324.027-4.364.026-2.185c.014-3.111-.055-5.974-.717-9.022L482 563l2-2a87 87 0 0 0 1-5.937c.525-3.858.812-5.781 3-9.063" fill="#21425F"/><path d="m553 486 2 3-3 1v2h-2l-1 3-1.937.813c-2.402 1.099-2.402 1.099-3.313 4.312L543 503h-8c5.26-6.473 11.033-12.355 18-17" fill="#163958"/><path d="m634.625 458.813 3.871-.038c8.709-.013 16.925.76 25.504 2.225v1q-3.75.04-7.5.063l-2.11.025c-4.086.019-7.942-.3-11.997-.863-5.607-.527-11.268-.325-16.893-.288l-3.937.014q-4.781.018-9.563.049v-1c7.535-1.192 15.008-1.184 22.625-1.187" fill="#1F445B"/><path d="M494 728h2l.77 2.414c2.123 6.768 2.123 6.768 5.043 13.211L503 746l-1 2c-1.75-.062-1.75-.062-4-1-4.224-5.551-5.06-11.082-5-18z" fill="#E1EAF1"/><path d="M787 576h1v40h-1l-1-6h-1c-.06-3.604-.094-7.208-.125-10.812l-.05-3.045c-.045-6.932.692-13.372 2.175-20.143" fill="#DCE7EB"/><path d="M826 534h2c.367 9.19-.29 17.194-3 26h-3l1-8h2l-.035-3.43-.028-4.445-.025-2.262c-.025-5.636-.025-5.636 1.088-7.863" fill="#183853"/><path d="M538 535c4.875 1.875 4.875 1.875 6 3 .188 2.438.188 2.438 0 5l-2 2c-4.784-.281-8.852-2.787-13-5v-1h7z" fill="#163F61"/><path d="m692 418 16 1-4 2c3.366 1.122 6.09 1.208 9.637 1.316l3.935.127 4.115.12 4.15.13q5.082.16 10.163.307v1q-6.644.075-13.287.11-2.257.015-4.513.04a902 902 0 0 1-6.516.045l-3.952.032C702.84 423.93 698.62 422.54 694 421v-2z" fill="#CEDDE4"/><path d="M822 668c-3.377 8.2-12.968 13.991-20 19 2.855-5.93 5.87-10.13 11-14.312.534-.455 1.067-.91 1.617-1.377C818.62 668 818.62 668 822 668" fill="#DFEAEB"/><path d="M773 524c2 2 2 2 2 5l2.938.438C781 530 781 530 782 531c.04 1.666.043 3.334 0 5l-2 1-1 3h2l2 7-2 2-.953-2.71c-2.535-7.162-5.15-14.265-8.047-21.29z" fill="#133A59"/><path d="M635 826c2.506 2.203 2.97 2.623 3.25 6.125C638 835 638 835 637 836l-.187 1.938L636 840c-3.062 1.25-3.062 1.25-6 2 .508-5.966 2.386-10.638 5-16" fill="#F0F9FA"/><path d="M799.188 681.313 801 682c-1.631 3.893-4.176 6.647-7 9.75l-1.367 1.535c-1.167 1.28-2.396 2.503-3.633 3.715h-2c-.25-2.312-.25-2.312 0-5 1.813-1.5 1.813-1.5 4-3a159 159 0 0 0 3-5c2.37-3.09 2.37-3.09 5.188-2.687" fill="#0C314C"/><path d="M636.563 703.938 640 704v12h-1l-1-5-6 5a920 920 0 0 1-.062-5.437l-.036-3.06c.154-3.947.562-3.494 4.66-3.566" fill="#092B47"/><path d="m644 860 2 1-1 2-2-1-.937 1.875L640 868l-8-2c-4.5 4.528-6.475 7.433-7 14l-2 1c-.574-5.355-.364-8.08 2.938-12.437 1.308-1.581 2.612-3.113 4.062-4.563 2.297.009 4.578.133 6.871.258L639 864l2-3z" fill="#FEFFFE"/><path d="m573 494 1.75 3.375c1.673 2.957 2.9 4.548 6.25 5.625-2.25.75-2.25.75-5 1-2.312-1.937-2.312-1.937-4-4l-2.75 1.125c-3.25.875-3.25.875-5.453-.07L562 500a399 399 0 0 1 3.813-3l2.144-1.687C570 494 570 494 573 494" fill="#DBE7EB"/><path d="m639 474 2 1q-.211 2.97-.437 5.938l-.247 3.34C640 487 640 487 639 488c-3 .125-3 .125-6 0-1-1-1-1-1.098-3.285l.035-2.777.028-2.786L632 477h2l1 7h2l.438-3.312C638 477 638 477 639 474" fill="#062D4C"/><path d="m655 809-3 2c-3.687-.875-3.687-.875-7-2v-2l-3 1c-6.98.886-13.987 1.442-21 2 11.5-7.667 21.612-5.35 34-1" fill="#28475F"/><path d="M723 703q-3.778 2.63-7.562 5.25l-2.135 1.488C701.35 718 701.35 718 698 718v-2l2.938-1.375c3.133-1.283 3.133-1.283 4.062-3.625l1.813-.875c2.302-1.036 2.302-1.036 4.062-3.062 3.76-3.65 7.013-5.683 12.125-4.063" fill="#173A55"/><path d="m828 629 3 1c.087 4.229.14 8.458.188 12.688l.076 3.63.029 3.506.048 3.222c-.39 3.373-1.41 5.195-3.341 7.954l-1.387 2.02L823 668l-3-1 1.715-2.336 2.222-3.039 2.215-3.023c2.384-3.356 2.975-4.953 2.98-8.997l.005-2.646-.012-2.771.012-2.737c-.007-4.271-.038-8.29-1.137-12.451" fill="#C1CFD7"/><path d="M730 648c5.455.455 5.455.455 8 3 2.069.643 2.069.643 4 1l1-3 1 2-1 2c-2.145.633-2.145.633-4.812 1.125l-2.645.508C733 655 733 655 729 655c-.625-2.375-.625-2.375-1-5z" fill="#103A5E"/><path d="M543 790c-1.765 6.107-3.696 12.074-6 18h-3c-1-3-1-3-.062-5.187L535 801h2l-.187-3.25c.241-4.834.968-7.75 6.187-7.75" fill="#E8F0F1"/><path d="m618 397 2 1c-5.639 7.048-5.639 7.048-9 9h-4l-1 3-5 1c1.344-3.157 2.6-4.725 5.477-6.578l2.03-1.328 2.118-1.344 2.14-1.39A786 786 0 0 1 618 397" fill="#183A54"/><path d="M731 794h3c1.901 6.217 3.669 12.444 5.254 18.75.615 2.418.615 2.418 2.746 4.25.414 2.383.414 2.383.625 5.125l.227 2.758L743 827c-1.73-2.596-2.63-4.49-3.621-7.387l-.897-2.595-.92-2.706q-.902-2.631-1.808-5.261l-.882-2.572a253 253 0 0 0-2.595-6.999C731 796 731 796 731 794" fill="#E6F0F5"/><path d="M587 736h3v2l2.313-.187c3.217.224 3.622.853 5.687 3.187 2.1 1.176 2.1 1.176 4 2v2c-7.087-.545-13.328-2.61-20-5v-1l5-1z" fill="#E6ECF0"/><path d="m530 508 1 2c-.926 1.734-.926 1.734-2.312 3.75-1.722 2.603-2.758 4.477-3.688 7.5-1.254 3.448-3.018 4.71-6 6.75-.738-1.61-.738-1.61-1-4 1.582-3.016 1.582-3.016 3.813-6.25l2.207-3.266L526 512h2z" fill="#123855"/><path d="M515 882c3.625.375 3.625.375 7 1v4l-12 3-2-4c3-2 3-2 5-2z" fill="#033153"/><path d="M737 681h2c.828 2.137.828 2.137 1 5-1.699 2.232-3.225 3.93-5.25 5.813l-1.527 1.521C729.422 697 729.422 697 726 697c1.346-4.406 3.194-6.43 7-9h2z" fill="#0D324F"/><path d="m670 906 2 2 2-1c1.984 2.917 1.988 4.124 1.625 7.75L675 918h-4c-2.153-3.858-3.393-6.551-3-11z" fill="#0F3656"/><path d="m577 688 6 1c.688 2.313.688 2.313 1 5-1.437 1.813-1.437 1.813-3 3v-2h-2l-1 3-3-1c.875-6.75.875-6.75 2-9" fill="#1F425D"/><path d="m691 893 2 3-3 2a651 651 0 0 0-1 5c-3.243 4.682-7.403 8.657-12 12 1.402-2.944 3.003-5.622 4.82-8.328l1.621-2.422 1.684-2.5 1.707-2.547Q688.913 896.1 691 893" fill="#CDDBE1"/><path d="M484 483c1 3 1 3-.187 6.5-1.702 3.286-2.692 4.67-5.813 6.5v-2l-1.312 1.5C475 497 475 497 472 497l-1 3-3-1 1.645-1.426 2.168-1.887 2.144-1.863c2.025-1.757 2.025-1.757 3.68-3.554C479 489 479 489 481 489l.938-2.437C483 484 483 484 484 483" fill="#F2F7F7"/><path d="M517 618c1.815 2.722 2.445 4.2 3.184 7.273.205.825.41 1.65.623 2.5q.627 2.59 1.25 5.18c1.13 4.525 2.339 8.114 4.943 12.047v2h-2c-2.682-3.768-4.233-7.894-5.687-12.25l-.671-1.996C517 627.597 516.53 623.357 517 618" fill="#27435A"/><path d="M770 464h3l1.46 3.36 1.915 4.39.96 2.21.938 2.15.857 1.967A146 146 0 0 0 782 484l-4-1v-2h-2l-2-8h-2l.125-2.25c-.129-2.838-.696-4.338-2.125-6.75" fill="#27475E"/><path d="m593 444 7 2c-3.765 2.087-7.788 3.335-11.875 4.625l-2.105.695c-4.135 1.308-7.63 1.941-12.02 1.68v-2l10-1v-2l8-1z" fill="#113450"/><path d="m749 698 1 2-1.277 1.645-1.66 2.168-1.653 2.144c-1.579 2.084-1.579 2.084-2.41 5.043a107 107 0 0 1-6 4l-3 2-2-2 2.45-2.195 3.237-2.93 1.608-1.437c3.582-3.253 6.682-6.658 9.705-10.438" fill="#20425B"/><path d="m502 618 2 1c.61 3.026.96 6.055 1.34 9.117.72 3.141 1.453 3.73 3.66 5.883.293 2.262.293 2.262.188 4.688l-.083 2.449L509 643c-4.961-3.938-5.698-11.123-7-17-.262-2.787-.224-5.202 0-8" fill="#0B2D48"/><path d="M513 863h1c.364 7.281-.397 14.133-3 21l-3 2q.387-3.783.813-7.562l.212-2.135c.569-4.935 1.826-8.821 3.975-13.303" fill="#DCE6EB"/><path d="m780 706 2 1v2h-2l.188 3.75c.028 5.998-1.558 11.517-3.188 17.25-2-2-2-2-2.012-4.68l.324-3.195.301-3.18c.648-4.93 2.072-8.517 4.387-12.945" fill="#0F3550"/><path d="M759 540c5.239 4.336 6.851 9.948 7.688 16.5L767 560h-4l-.184-2.23-.254-2.957c-.08-.963-.162-1.926-.246-2.918-.293-2.681-.743-5.261-1.316-7.895h-2z" fill="#12334C"/><path d="M746 515c3.827 3.424 5.723 6.007 7 11h2c.697 1.287 1.382 2.58 2.063 3.875l1.16 2.18L759 534l-1 2c-3.917-3.264-4.64-6.192-6-11l-3-1c-2.466-3.379-3-4.706-3-9" fill="#213E55"/><path d="M648 858c3.06 3.06 4.024 6.837 5 11-.312 3.063-.312 3.063-1 5-3.066-1.533-3.642-3.93-5-7-.944-3.049-1.268-4.34-.062-7.312z" fill="#E6EFF2"/><path d="M743 827c2.52 2.197 3.425 3.732 4.063 7 .608 3.059 1.12 4.274 2.937 7 .08 2.332.088 4.668 0 7-5.574-5.003-5.954-8.603-6.562-15.812l-.254-2.958z" fill="#7F96A7"/><path d="M538 803c2.356 3.534 2.49 4.836 2 9-3.123 5.708-3.123 5.708-7 7 1.097-5.691 2.54-10.746 5-16" fill="#1A3C5B"/><path d="M681 744h-3v2c-8.806 2.71-16.81 3.367-26 3v-1l3.438-.586 4.562-.789 2.254-.383c3.745-.651 7.393-1.394 11.058-2.406 3.456-.783 4.507-.829 7.688.164" fill="#37536A"/><path d="M747 643h3c.438 2.625.438 2.625 0 6-3.051 3.657-6.284 6.113-11 7l1-3h3l.621-1.934.817-2.504.808-2.496C746 644 746 644 747 643" fill="#032E52"/><path d="m656 749-1.937.938c-2 .897-2 .897-3.063 2.062a157 157 0 0 1-6.879-.121l-2.08-.072q-3.303-.116-6.604-.245l-4.466-.158Q625.485 751.21 620 751v-1q6.75-.254 13.5-.5l3.844-.145c6.223-.226 12.429-.418 18.656-.355" fill="#07314D"/><path d="M590 725c7.248-.416 13.17.558 20 3v2l2 1c-7.63-.61-14.702-2.796-22-5z" fill="#1D3D56"/><path d="M555 502c2.625-.187 2.625-.187 5 0-3.33 3.431-6.788 6.592-10.45 9.668-1.23 1.058-2.402 2.184-3.55 3.332.608-6.448.608-6.448 2.375-8.937C550 505 550 505 553 505z" fill="#173D5B"/><path d="M699 495c3.412.615 5.518 1.895 8.25 4l2.14 1.625L711 502v1c-2.875.625-2.875.625-6 1l-2-2h2v-3l-4-1-1 2h-2l-1 3-2-2z" fill="#E5EEF1"/><path d="M694 888c-1.621 4.798-4.293 8.667-7.125 12.813l-1.418 2.1A1523 1523 0 0 1 682 908c-.605-1.863-.605-1.863-1-4a206 206 0 0 1 4-5c1.082-2.308 2.043-4.638 2.973-7.012 1.395-2.7 2.913-3.988 6.027-3.988" fill="#193850"/><path d="m708 790 2 1v3c-1.828 1.5-1.828 1.5-4.25 3-3.52 2.207-3.52 2.207-6.797 4.75C697 803 697 803 694.75 802.688L693 802z" fill="#20435D"/><path d="M745 678c1 2 1 2 .188 4.5C744 685 744 685 742 687v3h-3v2c-2.312 1.688-2.312 1.688-5 3l-3-1 1.793-1.723c4.61-4.505 8.657-8.895 12.207-14.277" fill="#D2DFE6"/><path d="m513 602 2 1c2.269 6.807 2.243 13.91 2 21h-3l1-7-2-1z" fill="#0D2F4B"/><path d="m768 520 1 2h2q1.294 2.682 2.563 5.375l1.44 3.023L776 533l-1 2-3-1v-2l-4-2 .563-1.625c.551-2.995.043-5.412-.563-8.375" fill="#E1E9EE"/><path d="M628 393c21.417-.274 21.417-.274 25.563 3.063L655 398l-2.062-.437c-6.405-1.227-12.765-1.796-19.266-2.184C631 395 631 395 628 393" fill="#1C3C54"/><path d="m536 883-2.812 1.313c-3.11 1.368-3.11 1.368-4.407 3.25-2.808 2.266-6.001 2.011-9.468 2.125l-2.127.103c-1.728.082-3.457.147-5.186.209 3.154-2.103 5.751-2.939 9.375-4 3.204-.943 6.288-1.853 9.352-3.187C533 882 533 882 536 883" fill="#CBD8E0"/><path d="M546.563 875.938 550 876v1l-2.437.375L545 878l-1 2c-2.58.972-5.116 1.827-7.75 2.625l-2.172.695c-3.795 1.172-7.059 1.98-11.078 1.68 2.339-2.339 4.141-2.913 7.25-4l2.977-1.05a512 512 0 0 1 6.398-2.138c5.402-1.848 5.402-1.848 6.938-1.875" fill="#0F314C"/><path d="M485 690h2l.148 2.047.227 2.703c.07.882.14 1.763.21 2.672.273 2.58.273 2.58 1.517 4.656 1.118 2.393.768 3.487-.102 5.922-1.2-1.93-2.385-3.87-3.562-5.812l-2.004-3.27C482 696 482 696 483 693z" fill="#0D3350"/><path d="M803 681h2c-2.24 4.652-4.83 8.923-8 13l-5-1q1.404-1.659 2.813-3.312l1.582-1.864c2.942-3.344 2.942-3.344 4.605-4.824h2z" fill="#D2DEE2"/><path d="M730 536h3l1 4h6c-4.262 3.897-4.262 3.897-7.687 4.375C730 544 730 544 728 542c.556-4.556.556-4.556 2-6" fill="#173D59"/><path d="M536 521h4c-.95 2.63-1.798 4.75-3.562 6.938-1.83 2.625-2.08 4.917-2.438 8.062l-4-1 1-5h2l-1-3c1.688-3.187 1.688-3.187 4-6" fill="#0B304E"/><path d="M640 476h12v1l-11 1 .188 4.75c.165 4.183-.388 6.104-3.188 9.25-1.875-.25-1.875-.25-4-1-1.25-2.062-1.25-2.062-2-4h7z" fill="#D4E1E8"/><path d="m750 848 1 3h2c1.183 2.365 1.28 4.18 1.5 6.813.315 3.456.71 6.8 1.5 10.187l-3-1c-2.617-6.127-3.373-12.409-3-19" fill="#637A8D"/><path d="M525.384 759.355 528 760q2.428.207 4.863.316l2.686.127 2.764.12 2.822.13q3.432.159 6.865.307v2c-9.509.324-18.613-.666-28-2 3-2 3-2 5.384-1.645" fill="#335166"/><path d="m719 509 8 1v5l3 1v3l2 1-1 3-1.61-2.047-2.14-2.703-2.11-2.672A80 80 0 0 0 719 509" fill="#163E5D"/><path d="M720 424c2.98-.082 5.957-.14 8.938-.187l2.517-.077c5.94-.069 11.123.733 16.545 3.264l2 2-5 1 1-3-4 1v-2l-2.273.035c-6.65.059-13.127-.217-19.727-1.035z" fill="#1E3E59"/><path d="M645 394h-23c6.216-6.216 16.614-4.79 23 0" fill="#D8E7EB"/><path d="M574.797 591.773c1.163.01 2.326.02 3.523.032l3.809.02 3.996.05q2.01.016 4.02.027 4.928.036 9.855.098v1l-2.37.076c-3.523.115-7.045.238-10.567.361l-3.733.12-3.545.127-3.285.11c-2.44-.07-2.44-.07-3.5 1.206-.04 2-.043 4 0 6l-3-1c-.125-2.875-.125-2.875 0-6 2-2 2-2 4.797-2.227" fill="#11344F"/><path d="M825 612c3.146 6.046 5.532 12.088 5 19-2.755-2.361-3.692-4.41-4.687-7.875l-.762-2.555c-.562-2.62-.723-4.898-.551-7.57z" fill="#EAF3F6"/><path d="M530 480h3c-1.536 3.68-3.782 5.988-6.625 8.75l-2.477 2.422L522 493c-1-3-1-3-.223-4.824L525 483h5z" fill="#163A57"/><path d="M664 904h2c4.408 9.41 4.408 9.41 5 14-2.665-1.01-3.952-1.94-5.75-4.187-1.527-3.437-1.469-6.092-1.25-9.813" fill="#E3EDF0"/><path d="M631 826h3c-1.029 5.446-2.246 10.118-5 15h-1c-.315-5.99.318-9.636 3-15" fill="#0E324B"/><path d="M723 784h5a886 886 0 0 1 2 5.75l1.125 3.234C732 796 732 796 732 800h-4l-.184-2.082-.254-2.73c-.08-.894-.162-1.787-.246-2.708-.25-2.607-.25-2.607-1.316-5.48l1-2z" fill="#23435B"/><path d="M744 601h12l-1 15h-1c-.545-4.085-1-7.873-1-12l-9-2z" fill="#C3D4DD"/><path d="M515 584h1v8l2.809-.035 3.629-.028 3.62-.035C529 592 529 592 530 593q.062 3.5 0 7h-3l-1-6-11-1z" fill="#355265"/><path d="M736 884c7.63.61 14.702 2.796 22 5v1c-7.825.626-14.61-1.675-22-4z" fill="#E1ECF1"/><path d="M527 596v4l2 1q-2.687.079-5.375.125l-3.023.07C518 601 518 601 516 599c3.833-2.706 6.325-3.326 11-3" fill="#07304F"/><path d="m581 494 3 4-2 4c-2.25.375-2.25.375-5 0-2.312-3-2.312-3-4-6 3 0 3 0 5 1v2h2z" fill="#233F55"/><path d="M674 727c-3.273 3.273-7.797 3.88-12.305 4.125-1.899 0-3.797-.057-5.695-.125 6.041-4.027 10.864-5.635 18-4" fill="#0F3450"/><path d="M759 651c1 3 1 3 .004 5.48l-1.442 2.707-1.433 2.731L755 664l-3-1c.762-4.138 2.13-7.26 4-11h2z" fill="#0B2D4B"/><path d="M825 621c1.84 2.76 2.683 4.746 3.625 7.875.26.843.52 1.686.79 2.555.595 2.612.69 4.9.585 7.57l-2 1-2-11h-2c-.125-5.75-.125-5.75 1-8" fill="#1F3C53"/><path d="M542 792c2 3 2 3 1.828 5.559l-.578 2.879-.547 2.87c-.646 2.474-1.462 4.468-2.703 6.692-1.19-6.993-.994-11.533 2-18" fill="#103454"/><path d="m513 754 7 1v2l3 1v2l-3.812-.375-2.145-.21C515 759 515 759 512 757z" fill="#173B54"/><path d="m756 692 3 1c-1.431 3.162-3.175 5.623-5.437 8.25l-1.81 2.14C750 705 750 705 747 705c1.875-4.75 1.875-4.75 3-7l1.938-.312L754 697c1.297-2.49 1.297-2.49 2-5" fill="#062F4F"/><path d="M638 503h3v30h-1l-.076-1.785c-.117-2.718-.24-5.435-.361-8.153l-.12-2.806A227 227 0 0 0 638 503" fill="#062642"/><path d="M626 848c1.335 3.701.643 6.262-.375 10l-.836 3.125L624 864a541 541 0 0 0-1 4l-4 1z" fill="#CADBE3"/><path d="M517 570c-.514 7.689-1.077 15.349-2 23h-1v-22c2-1 2-1 3-1" fill="#082D49"/><path d="M495 528h1c.632 6.003-1.625 10.634-4 16h-2l1-7-2-1 2.438-1.75c2.54-2.231 3.213-2.995 3.562-6.25" fill="#0E324E"/><path d="M548 424h20v1c-12.893 3.275-12.893 3.275-18.437 1L548 425z" fill="#0E334F"/><path d="M741 422c6.56 2.508 11.747 5.373 17 10l-1 2-1.906-1.46c-5.34-3.942-9.53-6.446-16.094-7.54z" fill="#D7E5EA"/><path d="m511 646 .875 1.938c.953 2.214.953 2.214 3.125 3.062v5h2v6c-2.496-2.245-3.87-4.385-5.25-7.437l-1.078-2.31c-.755-2.533-.546-3.795.328-6.253" fill="#0D2F4A"/><path d="m827 528 3 2c.372 2.015.372 2.015.363 4.465l-.002 2.674-.048 2.798.01 2.788c-.056 6.874-.056 6.874-2.323 10.275-1.126-4.504-1.126-4.504-.535-6.832.64-2.593.667-4.937.66-7.606l.008-2.808c-.13-2.683-.535-5.14-1.133-7.754" fill="#DAE6ED"/><path d="m466 505 2 1c-3.97 6.522-3.97 6.522-8 8-2.158.947-2.158.947-4 3l-3-1c4.26-3.764 8.518-7.499 13-11" fill="#294963"/><path d="M795 497c2.188-.312 2.188-.312 5 0 2.438 2.188 2.438 2.188 5 5 1.96 1.72 3.977 3.353 6 5l-1 2a1405 1405 0 0 1-5.25-3.75c-.975-.696-1.95-1.392-2.953-2.11A56 56 0 0 1 795 497" fill="#D3E1E7"/><path d="M501 458c2 3 2 3 1.898 4.938l-.523 2.062-.477 2.063c-1.146 2.47-2.647 3.467-4.898 4.937q.426-2.658.875-5.312l.492-2.989C499 461 499 461 501 458" fill="#083050"/><path d="m506 442 1 2 3 1c-.999 2.997-1.651 4.027-4 6h-2v3l-3 1a932 932 0 0 1 1.375-4.25l.773-2.39c.804-2.226 1.75-4.27 2.852-6.36" fill="#2A4D67"/><path d="M779 648c2 2 2 2 3 5l2 1-1 2h-3a125 125 0 0 0-3 4h-2q.716-2.438 1.438-4.875l.808-2.742C778 650 778 650 779 648" fill="#204561"/><path d="m452 517 2 3c-1.715 3.594-3.348 7.002-6 10h-2c1.108-5.45 2.1-8.84 6-13" fill="#0D3756"/><path d="M785 490c3.968 1.679 6.87 4.083 10 7v3h-2v-3l-2.875-.437C787 496 787 496 785 495z" fill="#12334A"/><path d="M568 458c-1.527 3.054-3.952 3.38-7.062 4.625l-3.348 1.352L555 465l-1-2h3l.25-1.875c.75-2.125.75-2.125 2.438-3.437 3.034-.903 5.26-.381 8.312.312" fill="#2B4E6C"/><path d="m610 901 2 2c-1.502 3.62-2.821 6.732-5 10h-3c.573-2.867.861-3.861 3-6 .643-2.069.643-2.069 1-4h2z" fill="#F9FDFB"/><path d="m722 765-1.687.367c-3.441.942-6.618 2.45-9.875 3.89-2.649.807-3.876.68-6.438-.257q1.904-.972 3.813-1.937l2.144-1.09c4.44-2.114 7.252-1.787 12.043-.973" fill="#D5E3E9"/><path d="M604.668 745.46c.893.143 1.785.285 2.705.43l2.814.485 2.85.46q3.485.568 6.963 1.165v1h-18v-2h-5c3.399-2.266 3.851-2.171 7.668-1.54" fill="#1D3F59"/><path d="m486 708 1 3 4 1v11c-2.23-2.23-2.881-4.091-4-7l-1-1q-.062-3.5 0-7" fill="#F7FAFA"/><path d="m785 707 2 1q-.676 2.44-1.375 4.875l-.773 2.742C784 718 784 718 782 720c-1.367-4.51-.6-7.62 1-12z" fill="#F6FBFC"/><path d="M818 610h4q.758 1.903 1.5 3.813l.844 2.144C825 618 825 618 825 621c-4.06-1.353-4.921-3.344-7-7z" fill="#173A56"/><path d="m455 511 3 1-1.898 1.977-2.477 2.648-2.46 2.602c-2.252 2.885-3.228 5.261-4.165 8.773h-2c1.463-7.024 4.954-11.954 10-17" fill="#D2E1E9"/><path d="M493 479c.962 2.993 1.439 5.122 0 8-3.062 1.25-3.062 1.25-6 2 .646-3.489 2.019-6.068 4-9z" fill="#18425F"/><path d="M718 728v2c-3.83 2.901-7.275 3.537-12 4 1-3 1-3 2.742-4.203l2.133-1.047 2.117-1.078C715 727 715 727 718 728" fill="#1A3D55"/><path d="m765 677 2 4-7 9-2-1c1.557-4.671 4.084-8.087 7-12" fill="#284B65"/><path d="m635.5 602.313 2.406.238C640 603 640 603 642 605c-2.525 1.262-4.312 1.099-7.125 1.063l-2.758-.028L630 606l-1-3c2.472-1.236 3.773-.984 6.5-.687" fill="#22455F"/><path d="m537 526 .125 1.688c1.344 3.552 3.885 5.022 6.875 7.312l-1 3-8-5c.875-4.75.875-4.75 2-7" fill="#DAE9EF"/><path d="M544 883c-3.146 2.097-5.015 2.52-8.687 3.125l-3.012.508L530 887l-1-2c10.737-4.842 10.737-4.842 15-2" fill="#EEF8F8"/><path d="M674 711v2l-3.187.875c-3.677.996-3.677.996-6.5 2.313-2.597.912-3.77.754-6.313-.188v-2q2.873-.758 5.75-1.5l3.234-.844C670 711 670 711 674 711" fill="#23445D"/><path d="M445 624h2c-.584 6.304-2.04 11.987-4 18h-1c-.365-6.573.864-11.795 3-18" fill="#1A3952"/><path d="M534 500h2c-.474 4.268-2.958 6.175-6 9l-1.812 1.813L527 512v-7l2-1 2 1v-2h2z" fill="#DDECF0"/><path d="M709 497c5.875 1.875 5.875 1.875 7 3 .04 2 .043 4 0 6-3-1.812-3-1.812-6-4v-3l-2-1z" fill="#12344F"/><path d="M542 495c1.43 2.354 2.087 3.48 1.625 6.25L543 503h-8l2.938-3.437 1.652-1.934A50 50 0 0 1 542 495" fill="#1E4466"/><path d="m555 480 4 1c-3.7 3.925-7.55 6.946-12 10v-4a88 88 0 0 1 5-3c1.783-2.07 1.783-2.07 3-4" fill="#D5E3E8"/><path d="M728 472h5l1 5h3l1 5-1.68-1.277-2.195-1.66-2.18-1.653c-1.889-1.45-1.889-1.45-3.945-2.41z" fill="#20425B"/><path d="M533 819h2l-1 10-4 1q.462-2.47.938-4.937l.527-2.778C532 820 532 820 533 819" fill="#0C324D"/><path d="M535 806c.93 2.606 1.15 3.642.063 6.25L534 814h-2c-1.637 1.96-1.637 1.96-3 4 .547-3.922 1.178-7.458 3-11z" fill="#F4FBFB"/><path d="m571 794 2.375.563c2.596.697 2.596.697 4.625-.563l1.25 2.875c1.754 3.132 2.459 3.99 5.75 5.125l-3 1c-2.7-1.617-2.7-1.617-5.687-3.875l-3.012-2.242L571 795z" fill="#D0DEE4"/><path d="M701.316 735.89 703 737l-5 1v2l-12 1c2.641-1.76 5.033-3.01 7.938-4.25l2.59-1.14c2.472-.61 2.472-.61 4.788.28" fill="#375870"/><path d="m614 729 2.938.438c4.343.622 8.7 1.097 13.062 1.562l-1 2c-5.778.12-11.28-.168-17-1z" fill="#274B66"/><path d="m692 696 3 1h9l-2 3c-2.625.188-2.625.188-5 0l-1 2c-1 1-1 1-3 2z" fill="#052F52"/><path d="M819 583h4c-.087 1.626-.195 3.25-.312 4.875l-.176 2.742C822 593 822 593 819 595z" fill="#F8FCFC"/><path d="M729 518c2.25.438 2.25.438 5 2 1.65 2.883 2.853 5.886 4 9l-2 2c-2.826-3.797-4.566-6.186-4-11l-3-1z" fill="#0F3550"/><path d="M812 515c3.375.25 3.375.25 7 1 1.438 2.063 1.438 2.063 2 4l-2 2c-2.937-1.25-2.937-1.25-6-3-.875-2.187-.875-2.187-1-4" fill="#07304F"/><path d="M718 487a56.5 56.5 0 0 1 7 4c.688 2.625.688 2.625 1 5l-5-1-1-5h-2z" fill="#12354F"/><path d="m758 757 2 1-1 3c-4.929 2.034-9.849 2.32-15 1v-1l2.555-.621 3.32-.817 3.305-.808c2.745-.633 2.745-.633 4.82-1.754" fill="#C9DAE4"/><path d="M589 743c2.434.2 2.434.2 5.438.688l2.996.449c2.566.863 2.566.863 3.914 2.945L602 749a319 319 0 0 1-4.75-.812l-2.672-.458c-2.77-.784-4.404-1.876-6.578-3.73z" fill="#08304C"/><path d="m653.813 729.938 2.957.59L659 731v1c-3.23.833-6.366 1.143-9.687 1.25l-2.325.078L645 733l-2-3c3.941-1.03 6.836-.877 10.813-.062" fill="#244B67"/><path d="M454 670h2v2l1.77.816c2.236 1.187 3.994 2.482 5.918 4.121l1.824 1.528C467 680 467 680 468 683c-4.653-1.232-6.712-3.698-9.57-7.344-1.52-1.909-1.52-1.909-4.43-3.656z" fill="#E0EEF2"/><path d="m729 673-8 9c-1-4-1-4 0-7 4.36-3.213 4.36-3.213 8-2" fill="#E0ECF1"/><path d="m818 666 2 2q-2.43 2.258-4.875 4.5l-2.742 2.531C810 677 810 677 808 677l1-3h2v-3c1.531-1.387 1.531-1.387 3.5-2.687l1.969-1.325z" fill="#1D3D5A"/><path d="m820 604 1 2 3-1c1 1 1 1 1.188 4.375C825 613 825 613 823 616a345 345 0 0 1-1.5-3.75l-.844-2.11C820 608 820 608 820 604" fill="#D8E2E6"/><path d="m765 510 1.875 1c2.035 1.142 2.035 1.142 4.125 1l1 9h-2v-2h-2c-2.432-3.367-3-4.734-3-9" fill="#092E4B"/><path d="m505 510 2 1c-1.316 4.604-3.092 8.183-6 12h-2c.313-2.875.313-2.875 1-6l3-2v-3h2z" fill="#153651"/><path d="m697 494 1 3c-1.937 3.188-1.937 3.188-4 6l-5-1-1-5 2 2h4c1.79-2.427 1.79-2.427 3-5" fill="#1B394D"/><path d="m696 769 6 1c-3.197 2.649-6.395 4.94-10 7l1-6h3z" fill="#123652"/><path d="M822 668c-1.382 3.21-2.924 5.05-5.625 7.25l-1.914 1.578L813 678c0-3.521.583-4.1 2.813-6.687l1.582-1.887C819 668 819 668 822 668" fill="#EAF4F6"/><path d="M519 560c1.31 4.304.458 7.937-.437 12.25l-.448 2.258A822 822 0 0 1 517 580h-1c-.554-13.633-.554-13.633 3-20" fill="#224259"/><path d="m739 537 1.875.563c2.167.674 2.167.674 4.125-.563 1.604 3.508 2.22 6.144 2 10-2.5-2.174-3.436-3.73-4-7h-6l2-1z" fill="#0C314D"/><path d="M732 525c2.799 2.528 4.458 4.204 5 8l-5 3 1-4h2v-2l-4 1z" fill="#D8E5EC"/><path d="m624.125 443.938 2.285.013q2.795.02 5.59.049v1q-2.812.508-5.625 1l-3.164.563c-3.117.424-6.07.512-9.211.437v-2c3.188-1.594 6.629-1.102 10.125-1.062" fill="#F3FBFC"/><path d="m686 419 10 3-1 2-11-1v-2h2z" fill="#103651"/><path d="m510 884 1 2h11c-2.421 2.421-3.801 2.528-7.125 3.125l-2.758.508L510 890l-2-4z" fill="#203E54"/><path d="M728 877v2l8 1-1 2a5173 5173 0 0 1-6.64-1.465A249 249 0 0 1 722 879v-2c2.49-1.245 3.41-.777 6 0" fill="#1E425B"/><path d="M738 820c2.042 1.692 2.918 2.637 3.512 5.262l.176 2.426.199 2.449L742 832h-3c-1.327-3.981-1.07-7.85-1-12" fill="#072C49"/><path d="M573 798c3.44.638 5.802 1.987 8.688 3.938l2.386 1.59C586 805 586 805 587 807l-2.187-.937c-2.74-1.154-2.74-1.154-5.5-1.438-2.313-.625-2.313-.625-3.5-2.562L575 800z" fill="#13344D"/><path d="M560 728c5.131.513 9.748 2.057 14 5l1 3-9-3v-2l-6-2z" fill="#DEEBF0"/><path d="M654 716a342 342 0 0 1-5.312 2.125l-2.989 1.195L643 720l-3-2 1-2c1.926-.45 1.926-.45 4.313-.687l2.363-.262c2.317-.05 4.117.277 6.324.949" fill="#244862"/><path d="m825 657 1 3c-.926 1.824-.926 1.824-2.312 3.688l-1.364 1.886L821 667h-2c.547-3.375 1.055-5.082 3-8h3z" fill="#123350"/><path d="M762 648h3v2h-2l-.25 3.25c-.805 4.024-1.627 5.232-4.75 7.75.497-4.973 1.553-8.638 4-13" fill="#DCE9ED"/><path d="M771 613h1c.197 1.728.382 3.458.563 5.188l.316 2.917c.119 2.837-.201 5.15-.879 7.895l-3-1a669 669 0 0 1 2-15" fill="#E0ECF0"/><path d="M445 531h2a675 675 0 0 1-.375 6.438l-.21 3.62c-.138.971-.274 1.942-.415 2.942l-2 1q-.04-3.22-.062-6.437l-.036-3.622C444 532 444 532 445 531" fill="#0C2F4A"/><path d="m530 508 1 2a434 434 0 0 1-2.812 4.438l-1.583 2.496C525 519 525 519 522 520c1.125-2.972 2.223-5.334 4-8h2z" fill="#305168"/><path d="m629 496 10 1 1 3h-11l-1-2z" fill="#D0DADE"/><path d="m618 474 14 1v12h-1v-11l-15 1 2-1z" fill="#5D798E"/><path d="m610 403-10 7-1-2c6.072-6.232 6.072-6.232 11-5" fill="#E3EBF0"/><path d="m699 793 4 2a483 483 0 0 1-3.375 3l-1.898 1.688C696 801 696 801 694 801l1-4h2z" fill="#D9E6ED"/><path d="M442 655c1.5 1.375 1.5 1.375 3 3v2h2c1.727 1.969 1.727 1.969 3.625 4.5l1.914 2.531L454 669h-3l-1-3-3-1-1-4-3-1z" fill="#D7E7ED"/><path d="M448 610h2c-.543 4.557-1.69 8.026-4 12l-2 1q.713-2.97 1.438-5.937l.808-3.34C447 611 447 611 448 610" fill="#E2ECF2"/><path d="m510 540 2 3c-.75 3.625-.75 3.625-2 7l-2 1c-.656 2.527-.656 2.527-1 5l-2-1z" fill="#2C4E68"/><path d="M500 523c2 3 2 3 2 5h-2l.313 2.313L500 533c-2.5 1.813-2.5 1.813-5 3 1.418-4.472 3.113-8.711 5-13" fill="#D4E3EB"/><path d="M811 509c4.435 1.394 6.874 3.606 10 7l-1 2-3-2a168 168 0 0 0-6-2l1-3z" fill="#617C8D"/><path d="M795 498c3.756 2.21 7.388 4.564 11 7-2.49 1.245-3.41.777-6 0v-2l-4 1c-1.062-1.875-1.062-1.875-2-4z" fill="#1F435A"/><path d="m544 489 2 3-8 8-1-3c1.434-2.043 1.434-2.043 3.438-4.187l1.996-2.168z" fill="#E0EDF2"/><path d="M692 417v2h2v2l3 1c-4.318-.508-8.033-1.197-12-3v-2c2.667-1.333 4.167-.671 7 0" fill="#D0DDE4"/><path d="M655 398c4.53.533 7.45 2.16 11 5 1.176 2.64 1.176 2.64 2 5-9.595-6.15-9.595-6.15-13-10" fill="#D6E4E9"/><path d="M686 903h2c-1.477 3.452-3.438 5.65-6.125 8.25l-2.195 2.14L678 915c0-4.055 1.549-5.848 4-9h3z" fill="#D6E3E9"/><path d="M517 861h3l-1 9-2-2-3 3z" fill="#284862"/><path d="m635 826 3 3-1 2h-2l-.586 1.715-.789 2.222-.773 2.215C632 839 632 839 630 840q.678-2.659 1.375-5.312l.773-2.989C633 829 633 829 635 826" fill="#C6D9E4"/><path d="M689 801h4v2l-10 5v-3c3-2 3-2 6-2z" fill="#E5F0F3"/><path d="M540 790h3a716 716 0 0 1-1.375 4.813l-.773 2.707C540 800 540 800 538 803c-.167-4.921-.248-8.503 2-13" fill="#CCDDE5"/><path d="m545 784 10 1 1 4h-2v-3l-1.75.5c-2.25.5-2.25.5-6.25.5-1.751 1.417-1.751 1.417-3 3z" fill="#2E4C62"/><path d="m691 777-1 3h-2v2l-4 2-2-3c2.69-3.093 4.924-4 9-4" fill="#183E58"/><path d="M709 730c-3.288 2.912-5.599 4.497-10 5v-3c3.575-2.86 5.639-3.37 10-2" fill="#E0EDF2"/><path d="M505 676c4.234 3.607 6.47 8.146 9 13h-2v-2c-.936-.09-.936-.09-1.89-.184-2.11-.816-2.11-.816-3.157-3.101l-.703-2.778-.734-2.785z" fill="#365368"/><path d="M488 639c2 1 2 1 3.125 4.25.73 3.127 1.067 5.576.875 8.75-3.17-2.455-4.295-4.294-4.812-8.187L487 640z" fill="#12314C"/><path d="M482 616c2.624 3.002 3.363 4.771 3.188 8.75l-.083 2.422L485 629c-2.246-1.774-2.95-2.584-3.293-5.48l.106-2.707.082-2.731z" fill="#093150"/><path d="M826 534h2v11l-3-1c-.125-7.75-.125-7.75 1-10" fill="#062C47"/><path d="M802 505c4.993 1.277 7.576 3.173 11 7-3.68-.708-6.762-2.129-10-4z" fill="#103651"/><path d="M591 483a805 805 0 0 1-4.375 2.5l-2.46 1.406C582 488 582 488 580 488l1-5c7.75-1.125 7.75-1.125 10 0" fill="#0A2F4C"/><path d="M667 476c1.875 2 1.875 2 3 4-4.69-.566-9.345-1.185-14-2v-1c3.738-.88 7.165-1.417 11-1" fill="#26485E"/><path d="m719 464 2 2c2.57.648 2.57.648 5 1v4c-3.396 0-4.066-.522-6.687-2.5l-1.887-1.406L716 466z" fill="#294E66"/><path d="M744 885c1.77-.081 3.541-.14 5.313-.187l2.988-.106c2.699.293 2.699.293 4.554 1.805L758 888c-3.547 1.251-5.723.723-9.25-.437l-2.703-.872L744 886z" fill="#294A65"/><path d="M521 851h2c.75 2.188.75 2.188 1 5-1.812 2.813-1.812 2.813-4 5h-2z" fill="#183953"/><path d="M500 728h2v8l-3 1c-2-3-2-3-1.75-5.062C498 730 498 730 500 728" fill="#072D4B"/><path d="M530 704c2.5 1.375 2.5 1.375 5 3v2l3 1-1 4a335 335 0 0 1-3.5-3.312l-1.969-1.864C530 707 530 707 530 704" fill="#D1DFE5"/><path d="m744 705-8 8c-1-3-1-3 0-6 4.36-3.213 4.36-3.213 8-2" fill="#D7E5EE"/><path d="M532 680c2.125.938 2.125.938 4 2l-1 6a141 141 0 0 1-5-5v-2z" fill="#0F304A"/><path d="M545 677c4.875 2.625 4.875 2.625 6 6l-2 1 1 2-4-1z" fill="#052C48"/><path d="M513 657c2.24 2.88 4.299 5.767 6 9l-1 2-3 1-1-9h-2z" fill="#C6D3DB"/><path d="M820 566h2c-.804 8.036-.804 8.036-3 12a248 248 0 0 1-.625-4.312l-.352-2.426C818 569 818 569 820 566" fill="#1E4058"/><path d="m560 501 2 1c0 3 0 3-1.187 4.688-2.37 1.716-3.953 1.544-6.813 1.312a105 105 0 0 1 4-5h2z" fill="#DDE8EC"/><path d="m488 480 2 3-6 8c-1-3-1-3-.25-5.5 1.185-2.37 2.263-3.784 4.25-5.5" fill="#DEEBF1"/><path d="M571 768c2.75-.25 2.75-.25 6 0 2.375 2 2.375 2 4 4-3.801 1.267-5.385.572-9-1z" fill="#09304F"/><path d="m770 744 1 2-1 2h-2l-.812 1.875C766 752 766 752 763 754c.155-2.71.482-4.466 2.402-6.445 1.496-1.232 3.044-2.398 4.598-3.555" fill="#32526A"/><path d="M616 715a669 669 0 0 1 15 2v1h-15z" fill="#143852"/><path d="M597 710q2.19.425 4.375.875l2.46.492C606 712 606 712 608 714c-2.709 1.354-5.01 1.065-8 1l-.375-1.937L599 711z" fill="#2A506C"/><path d="m450 610 4 1c-.542 3.796-2.201 5.472-5 8z" fill="#0D324D"/><path d="m540 537 4 1c.125 2.375.125 2.375 0 5l-2 2h-4v-2h3z" fill="#355066"/><path d="m521 493 1 3c-1.871 2.7-1.871 2.7-4.437 5.688l-2.56 3.011c-.991 1.14-.991 1.14-2.003 2.301l-2-1 1.426-1.828 1.886-2.422 1.864-2.39A453 453 0 0 0 521 493" fill="#C9DAE2"/><path d="m691 494 3 1c.688 2.063.688 2.063 1 4l-5 1c-.625-1.875-.625-1.875-1-4z" fill="#072F4F"/><path d="m586 485 2 1-2.375 2.313c-2.698 2.596-2.698 2.596-4.625 5.687l-1-5z" fill="#CDDEE6"/><path d="M770 457c1.922.71 1.922.71 4 2 .828 2.164.828 2.164 1.25 4.625l.453 2.477L776 468l-2 1a1151 1151 0 0 1-2-4.875l-1.125-2.742C770 459 770 459 770 457" fill="#DEECF1"/><path d="M515 856c2 2 2 2 2.25 4.813-.247 3.15-.913 5.346-2.25 8.187h-1a701 701 0 0 1-.062-4.812l-.036-2.708C514 859 514 859 515 856" fill="#ECF4F4"/><path d="M522 843h2l-3 10-3-1 1-5 3-1z" fill="#DDE7EA"/><path d="M731 794h3l3 12h-2a1151 1151 0 0 1-2-4.875l-1.125-2.742C731 796 731 796 731 794" fill="#DEE8EE"/><path d="m614 786 2 1Zm0 1-1 3c-6.625.25-6.625.25-10-2 3.734-.879 7.168-1.09 11-1" fill="#082F4D"/><path d="M684 744c-2.53 3.151-4.768 3.588-8.687 4.188l-3.012.48L670 749l1-2c2.322-.407 4.657-.744 7-1v-2c3-1 3-1 6 0" fill="#052F4E"/><path d="M547 722c3.588 1.333 6.836 2.83 10 5v2h-3v-2l-5-1v-2h-2z" fill="#0D3049"/><path d="m583 704 9 4-1 3c-3.337-1.173-5.774-2.189-8-5z" fill="#143956"/><path d="M731 671c.625 1.875.625 1.875 1 4-2.463 2.463-4.707 2.998-8 4 1.491-3.795 3.757-5.61 7-8" fill="#26475F"/><path d="M540 669c2.932 2.853 5.643 5.65 8 9l-7-2z" fill="#25465D"/><path d="M505 637c1.904 2.856 2.695 4.931 3.625 8.188l.79 2.73L510 650c-2.5-.875-2.5-.875-5-3-.46-3.367-.285-6.621 0-10" fill="#CDDCE4"/><path d="M767 624h1c.298 8.787.298 8.787-2 13l-2 1q.467-2.376.938-4.75l.527-2.672c.459-2.21.968-4.393 1.535-6.578" fill="#14354F"/><path d="M787 576h1v16l-3-1 .438-3c.571-3.994 1.07-7.995 1.562-12" fill="#D1E0E7"/><path d="m825 527 1 3h2c1.05 3.15 1.101 5.388 1.063 8.688l-.028 3.011L829 544h-1v-10h-2v-2h-2z" fill="#37556A"/><path d="M752 525c3 1 3 1 4.203 2.777l1.047 2.16 1.078 2.153L759 534l-1 2c-3.867-3.222-4.88-6.15-6-11" fill="#29465D"/><path d="M755 498c3.781 1.26 4.013 2.689 6 6l3 1-1 5-4-5-2.25-2.687C755 500 755 500 755 498" fill="#13374F"/><path d="M620 476h11v11l-2 1 .035-1.934.028-2.503.035-2.497c.135-2.058.135-2.058-1.098-3.066a70 70 0 0 0-4.062-.562L620 477z" fill="#E6F5FB"/><path d="m516 430 2 1-1 5h-4v2h-3c1.443-3.366 3.333-5.51 6-8" fill="#27475E"/><path d="M613 882c1.001 3.503 1.705 6.59 0 10h-2l-1 3c-1-2-1-2-.223-4.602l1.16-3.023 1.153-3.04z" fill="#B3C3CF"/><path d="M696 881v6l-6 3c2.6-9 2.6-9 6-9" fill="#093153"/><path d="m559 790 7 1 1 3 2 1c-3.719-.507-6.735-1.116-10-3z" fill="#072E4C"/><path d="M498 738c2.645 3.125 3.844 6.088 5 10l-5-1z" fill="#CFDCE3"/><path d="M696 740c-3.146 2.8-5.067 3.353-9.25 3.188l-2.703-.083L682 743c4.588-3.059 8.567-3.126 14-3" fill="#113753"/><path d="M668 731h-2v2c-4.084 1.532-7.795.63-12 0v-1q2.371-.546 4.75-1.062l2.672-.598c2.565-.338 4.149-.152 6.578.66" fill="#CDE0EA"/><path d="M656.14 714.926 662 716l-1 2h-11c4-3 4-3 6.14-3.074" fill="#09314C"/><path d="m794 692 2 3-6 5-1-2c2.41-4.705 2.41-4.705 5-6" fill="#EDF3F2"/><path d="M498 666c3.21 1.107 4.01 2.016 5.813 5l1.187 3-1 2c-3.483-3.019-4.792-5.57-6-10" fill="#2C485C"/><path d="m519 661 1 3h2l1 7-1-2-3-1c-1.187-2.562-1.187-2.562-2-5z" fill="#082C49"/><path d="M506 648c1.938.625 1.938.625 4 2 .75 3.125.75 3.125 1 6h-4z" fill="#F3FAFB"/><path d="M501 624c2.313 2.313 2.496 3.479 3.125 6.625l.508 2.477L505 635c-3-1-3-1-4.25-3.25-.827-3.032-.604-4.761.25-7.75" fill="#C8D8E2"/><path d="M494 536c1.307 4.297.66 7.602 0 12h-2c-1.124-3.304-.896-5.05.438-8.25l.87-2.14z" fill="#C7D3DA"/><path d="m585 898 4 4c1.114 1.02 1.114 1.02 2.25 2.063C593 906 593 906 593 909c-4.21-1.504-5.832-4.207-8-8z" fill="#0C2F49"/><path d="m759 883 3 1v6h-4v-2l-2-1h3z" fill="#0E304E"/><path d="m569 874 5 5-2 4c-3.223-5.273-3.223-5.273-4-7z" fill="#1D4262"/><path d="M754 859c2 1.438 2 1.438 4 4 .354 3.028.233 5.965 0 9-2.722-2.722-3.106-5.295-4-9z" fill="#C7D4DE"/><path d="m532 813 2 1-2 9-3-2c.547-3.375 1.055-5.082 3-8" fill="#D7E4E7"/><path d="M720 785h7v2c-4.177 1.591-7.532 2.213-12 2 3-2 3-2 5-2z" fill="#0D344F"/><path d="m683 784 2 1c-.648 1.953-.648 1.953-2 4-2.602.61-2.602.61-5.625.75l-3.04.172L672 790a73 73 0 0 1 7.063-4.187l2.097-1.106z" fill="#BECFDA"/><path d="m593 741 8 1 1 3-8-1z" fill="#D7E4ED"/><path d="m681 722 3 1v2c-7.212 3.256-7.212 3.256-10.5 2.188L672 726l2.813-.312c3.22-.695 4.213-1.165 6.187-3.688" fill="#1B435F"/><path d="M491 706c1.646 2.963 2.653 5.613 3 9l-2 3c-1.806-4.462-2.117-7.31-1-12" fill="#234662"/><path d="m757 689 2 4h-3l-2 5-4-1z" fill="#2F4E65"/><path d="m751 693 2 2-6 7-2-2c1.393-3.367 2.979-4.986 6-7" fill="#DFECF3"/><path d="M464 677c4.11 1.45 7.433 3.511 11 6l-1 3a575 575 0 0 1-3.875-2.812l-2.18-1.583C466 680 466 680 464 677" fill="#21425A"/><path d="M444 646h1c.39 1.768.762 3.54 1.125 5.313l.633 2.988C447 657 447 657 445 660c-1.513-5.16-2.335-8.66-1-14" fill="#254964"/><path d="M753 621c.967 3.122.99 5.52.563 8.75l-.31 2.422L753 634l-3 1q.465-2.657.938-5.312l.527-2.989C752 624 752 624 753 621" fill="#375568"/><path d="M450 584h2c1.607 3.215 1.057 6.436 1 10l-3 1z" fill="#F5FDFB"/><path d="M729 497c3.367 1.393 4.986 2.979 7 6-2.375.125-2.375.125-5 0l-2-2z" fill="#143452"/><path d="M601 476a100 100 0 0 1 5 0l1 1c1.666.04 3.334.043 5 0-3.825 2.39-7.597 2.56-12 3z" fill="#20445D"/><path d="M714 876c4.195.6 8.01 1.575 12 3-3.088 1.765-4.233 2-8 2l-1-3z" fill="#BDCCD6"/><path d="M754 866c1.563 1.813 1.563 1.813 3 4-1 3-1 3-3 4-1.46-2.647-2-3.894-2-7z" fill="#062D50"/><path d="m714 788-11 6v-3c6.5-4.125 6.5-4.125 11-3" fill="#E4EFF4"/><path d="M495 736h2l2 8c-1.937-.687-1.937-.687-4-2-.812-2.562-.812-2.562-1-5z" fill="#F5F8F8"/><path d="M694 723v2c-1.415.197-2.832.382-4.25.563l-2.39.316c-2.365.121-4.111-.183-6.36-.879 8.262-3.629 8.262-3.629 13-2" fill="#BDCFD8"/><path d="M485 701c2.523 2.523 3.714 3.834 5 7v3h-3z" fill="#C5D6DF"/><path d="m539 672 2 1v3l2 1c-1.812 1.063-1.812 1.063-4 2l-3-1z" fill="#023155"/><path d="M492 648c1.67 3.338 2.874 6.462 4 10l-5-1z" fill="#31516A"/><path d="m745 644 1 2-4 6-5-1 1.875-.187c2.396-.63 2.396-.63 3.25-3.313L743 645z" fill="#C5D7DF"/><path d="M752 598q2.514.428 5 1v2h-13v-1l3.438-.437c3.37-.175 3.37-.175 4.562-1.563" fill="#072A49"/><path d="M745.848 592.902 752 593v2h-7l-2 4a100 100 0 0 1 0-5c1-1 1-1 2.848-1.098" fill="#062C4B"/><path d="m461 505 2 1v3c-2.5 1.688-2.5 1.688-5 3l-2-2z" fill="#DFECED"/><path d="m539 476 1 3c-2.366 2.615-4.86 4.39-8 6l-2-1z" fill="#CEDBE4"/><path d="M758 434c1.938.625 1.938.625 4 2 .75 3.125.75 3.125 1 6-3-1-3-1-5-4z" fill="#6D8796"/><path d="m664 407 5 1 1 3h-2v2l-3-1z" fill="#0C3451"/><path d="m618 397 2 1-5 6-2-1v-3c2.375-1.75 2.375-1.75 5-3" fill="#2A4C64"/><path d="M746 836c2.976 3.068 3.965 4.462 4.25 8.813L750 848c-2.505-2.505-3.051-4.61-4-8z" fill="#D1DEE5"/><path d="M638 832c2.565 2.565 2.54 4.477 3 8l-4-1c-.625-2.375-.625-2.375-1-5z" fill="#D8E6EB"/><path d="m527 828 2 2-2 7c-1.5-1.25-1.5-1.25-3-3v-4z" fill="#DCE6EB"/><path d="m574 771 8 1 1 3-2 2a698 698 0 0 1-3.5-2.437l-1.969-1.372L574 772z" fill="#1E425D"/><path d="M546 760h8v2l3 1h-9v-2z" fill="#0A304D"/><path d="M581 695c-.498 3.688-1.1 5.605-4 8l-2-6c3.75-2 3.75-2 6-2" fill="#072A49"/><path d="m697 690 2 4h4l-1 3c-1.875-.187-1.875-.187-4-1-1.25-2.562-1.25-2.562-2-5z" fill="#E2EFF3"/><path d="m498 668 4 5-2 3v-2h-2l-1 2c-1.208-3.623-.543-4.641 1-8" fill="#023053"/><path d="M762 552h2c3 5.75 3 5.75 3 8h-4z" fill="#042D4A"/><path d="m571 474 2 1v3l-9 1c4.75-3.875 4.75-3.875 7-5" fill="#284A67"/><path d="m599 464 2 1c-3.876 3.611-3.876 3.611-6 5-2.375-.187-2.375-.187-4-1 2.688-2.252 4.646-3.882 8-5" fill="#043052"/><path d="M606 902h1l1 6-3 2c-1.192 2.05-1.192 2.05-2 4-1-2-1-2-.223-4.383l1.16-2.742 1.153-2.758z" fill="#C2D4DD"/><path d="M654 882c1.938.75 1.938.75 4 2 .875 2 .875 2 1 4l-2 2c-3-4.625-3-4.625-3-8" fill="#F2F7F9"/><path d="M643 850h3l2 8c-2.5-1.187-2.5-1.187-5-3-.312-2.687-.312-2.687 0-5" fill="#D9E8EE"/><path d="M774 725c2 3 2 3 1.75 6.125L775 734l-2 1c-1.158-4.054-.837-6.218 1-10" fill="#0A2D49"/><path d="M698 719c-.812 1.938-.812 1.938-2 4-3 1-3 1-6 0 1.557-3.115 4.6-4 8-4" fill="#D5E2E8"/><path d="M729 713h4c-1.333 4-3.496 4.838-7 7v-3h2z" fill="#E2EEF3"/><path d="M477 685c2.9 2.395 3.502 4.312 4 8l-7-6z" fill="#15344F"/><path d="M830 648h1c.274 5.394.36 8.52-3 13-.625-1.812-.625-1.812-1-4l2-3c.39-1.99.732-3.99 1-6" fill="#E8F2F4"/><path d="m572 599 9 3v1q-2.187.039-4.375.063l-2.46.035C572 603 572 603 570 602c1-2 1-2 2-3" fill="#1F4161"/><path d="M517 576h2c.213 4.468-.409 7.823-2 12h-1c-.143-8.571-.143-8.571 1-12" fill="#DCEAF0"/><path d="m821 518 5 4-1 4v-2l-4-1z" fill="#678094"/><path d="m573 496 1.75 2.375c2.079 2.425 3.34 3.482 6.25 4.625-2.312.688-2.312.688-5 1-2.538-1.813-2.995-2.985-4-6z" fill="#CDDAE2"/><path d="m699 495 3 1h-2v4h-2l-1 3-2-2z" fill="#D5E1E8"/><path d="M546 471c2 2 2 2 2 5h-2l-1-2-3 3v-3c2-1.687 2-1.687 4-3" fill="#E0E7EB"/><path d="m591 418 1 3c-3.375.625-3.375.625-7 1l-2-2c3.088-1.765 4.233-2 8-2" fill="#062D4B"/><path d="M539 810c0 3.106-.54 4.353-2 7l-1-2c1.438-2.625 1.438-2.625 3-5m-5 3c1.063 1.875 1.063 1.875 2 4l-1 2h-2z" fill="#21486A"/><path d="M643 782c5.538.615 5.538.615 7.875 2.563L652 786c-2.812.25-2.812.25-6 0-1.875-2-1.875-2-3-4" fill="#0F344D"/><path d="M590 725h10v3c-7.75-.75-7.75-.75-10-3" fill="#34546C"/><path d="m730 716 2 1-4 6-4-2z" fill="#2E5168"/><path d="m529 682 5 5-2 3h-2z" fill="#D6E2E7"/><path d="M715 682h5c-1.375 2-1.375 2-3 4h-2v2h-2c.506-2.169 1-4 2-6" fill="#D8E8EC"/><path d="M545 648h1c.37 5.538.37 5.538-1.5 7.875L543 657l-3-1 4-2-.062-2.437C544 649 544 649 545 648" fill="#DAE4E8"/><path d="M540 647.875c3 .125 3 .125 4 1.125.04 1.666.043 3.334 0 5l-3-4-3 2v-2l-2-1c1-1 1-1 4-1.125" fill="#27465D"/><path d="M747 643c.621 1.797.621 1.797 1 4-1.937 3.25-1.937 3.25-4 6l-1-2c.777-1.945.777-1.945 1.938-4.125l1.152-2.195z" fill="#082A43"/><path d="m508 548 3 1-1 6h-3z" fill="#032E4F"/><path d="m491 546 1 2 2 1c-1.375 2.5-1.375 2.5-3 5h-2z" fill="#E1EEF2"/><path d="m529 540 4 1a105 105 0 0 1-4 5h-2z" fill="#D0E2E8"/><path d="M543 519c0 2.621-.313 4.51-1 7h-3c0-3 0-3 2-5.187z" fill="#D3DFE6"/><path d="m513 498 3 1c-3.75 6.875-3.75 6.875-6 8 .557-3.344 1.352-6.033 3-9" fill="#1A3B53"/><path d="M570 490h2v2h5l-2 4c-2.5-1.312-2.5-1.312-5-3z" fill="#062E51"/><path d="m484 490 3 1c-1.706 2.784-2.476 3.854-5.687 4.75L479 496z" fill="#25435A"/><path d="M724 488c2 0 2 0 3.688 1.25L729 491c-.312 2.188-.312 2.188-1 4l-6-5z" fill="#D8E6EC"/><path d="m632 483 2 2c2.57.648 2.57.648 5 1l1-2-1 4h-6z" fill="#153143"/><path d="M498 461c1.136 3.41.867 4.003-.437 7.188l-.872 2.167L496 472h-1v-5l-2-1h2l1-3h2z" fill="#D4E3E7"/><path d="m752 431 5 2v3l-3 1z" fill="#123955"/><path d="M587 419c-1.562 2.063-1.562 2.063-4 4-3.75-.25-3.75-.25-7-1v-1q2.183-.794 4.375-1.562l2.46-.88C585 418 585 418 587 419" fill="#324F67"/><path d="M593 908c2.125.938 2.125.938 4 2v2l-4 1-2-4z" fill="#173A59"/><path d="M547 879v3h-10c3.584-2.39 5.732-3 10-3" fill="#C4D0D9"/><path d="M722 880c5.538-.37 5.538-.37 7.875 1.5L731 883c-3.2 1.6-5.723.032-9-1z" fill="#F2FAFA"/><path d="M746 846h3c.688 2.313.688 2.313 1 5-1.437 1.813-1.437 1.813-3 3v-5l-2-1z" fill="#153959"/><path d="M638 830h2c1.625 2.75 1.625 2.75 3 6l-2 4z" fill="#16374E"/><path d="m604 787 2 3c-7.75-.75-7.75-.75-10-3 2.932-1.466 4.883-.78 8 0" fill="#36556C"/><path d="m634 784-1 4-7-1c1.769-3.538 4.296-3 8-3" fill="#CAD7E0"/><path d="M758 753q2.514.428 5 1c-4.75 4-4.75 4-7 4 .875-3.875.875-3.875 2-5" fill="#163B56"/><path d="M505 750h5c1 3 1 3 0 6z" fill="#2A4F6C"/><path d="m776 720 2 2c-.033 2.729-.564 5.297-1 8l-2-2c.033-2.729.564-5.297 1-8" fill="#22425A"/><path d="m563 712 3 1v2l6 2-4 2c-1.5-1.375-1.5-1.375-3-3v-2h-2z" fill="#D4E0E6"/><path d="m495 704-1 8c-2-1.812-2-1.812-4-4v-3c2-1 2-1 5-1" fill="#023057"/><path d="M448 659c2.025 1.933 3.421 3.632 5 6l-1 3c-4.004-4.395-4.004-4.395-5-6z" fill="#21425A"/><path d="M730 648c2.063.438 2.063.438 4 1l-2 1c-.652 2.025-.652 2.025-1 4h-3c.875-4.875.875-4.875 2-6" fill="#183650"/><path d="m784 630 3 1c-.875 4.75-.875 4.75-2 7h-2z" fill="#1E3E58"/><path d="m529 600 2 3-2 3h-4l-1-3 1.938-.937c1.998-.898 1.998-.898 3.062-2.063" fill="#ECF2F6"/><path d="m738 592 4 1v6l-4-2z" fill="#E5F0F4"/><path d="m728 535 2 2a106 106 0 0 1-1 5l1 2h-3c-.625-2.812-.625-2.812-1-6z" fill="#DAEAF1"/><path d="m510 504-1 6h-2l-2-4c3-2 3-2 5-2" fill="#0A304C"/><path d="m668 406 8 4v2c-3.342-.597-5.464-1.736-8-4z" fill="#E1EEF2"/><path d="M645 394c2.75-.25 2.75-.25 6 0 2.375 2 2.375 2 4 4-3.558-.61-6.683-1.578-10-3z" fill="#C4D4DD"/><path d="m666 912 4 1 1 5c-1.937-.75-1.937-.75-4-2-.75-2.125-.75-2.125-1-4" fill="#D3DEE4"/><path d="M610 887c1 3 1 3 .063 5.188L609 894l-2-1c.375-2.437.375-2.437 1-5z" fill="#092C48"/><path d="M577 888c2.993 1.098 3.846 1.677 5.25 4.625L583 895c-2.993-1.098-3.846-1.677-5.25-4.625z" fill="#16364F"/><path d="M700 880c.934 3.01 1.044 3.867 0 7l-4-1z" fill="#D2E1E6"/><path d="m648 858 2 2c-.375 2.625-.375 2.625-1 5l-3-1z" fill="#D5E1E7"/><path d="m655 810 7 1v2h-8z" fill="#10324B"/><path d="M681 744h-3v2l-7 1c3.181-3.484 5.432-4.418 10-3" fill="#254359"/><path d="M576 737c3.775 1.09 6.47 1.908 9 5l-5-1v-2l-4 1z" fill="#274B63"/><path d="m714 708 2 1c-1.687 2.5-1.687 2.5-4 5-2.75.313-2.75.313-5 0l2.375-1.875c2.593-2.024 2.593-2.024 4.625-4.125" fill="#C4D4DF"/><path d="M612.25 711.375 614 712v2l2 1-10-2c4-2 4-2 6.25-1.625" fill="#C9DCE5"/><path d="M581 697c3 3.625 3 3.625 3 7l-4-1a100 100 0 0 1 0-5z" fill="#CAD9E0"/><path d="m709 691 5 1-1 4c-3.875-1.875-3.875-1.875-5-3z" fill="#15436B"/><path d="M723 679v6l-6 1z" fill="#1E425A"/><path d="M549 675c4.429 5.143 4.429 5.143 5 9l-6-5z" fill="#D1E1E8"/><path d="M773 656h3c-1.75 5.75-1.75 5.75-4 8-.125-5.75-.125-5.75 1-8" fill="#E3EFF4"/><path d="m743 649 1 2-1 2c-2.649.594-5.292.742-8 1l1-3 6 1z" fill="#2B4C64"/><path d="m754 568 1 2h2v10h-1c-1.138-4.266-2-7.565-2-12" fill="#062A4C"/><path d="M523 552c1.5 1.313 1.5 1.313 3 3v3l-5 2z" fill="#C7D6DD"/><path d="M504 553h1c-.553 4.03-1.156 8.02-2 12h-1v-9h2z" fill="#CCDAE5"/><path d="M507 540h3l-2 7-2-2c.375-2.625.375-2.625 1-5" fill="#D8E8EF"/><path d="m768 520 1 2h2l2 6c-1.937-.625-1.937-.625-4-2-.75-3.125-.75-3.125-1-6" fill="#C8D7E0"/><path d="M458 513h4c-.75 1.938-.75 1.938-2 4-2.125.75-2.125.75-4 1z" fill="#083053"/><path d="M557.563 501.938 560 502c-4.75 4.875-4.75 4.875-7 6 1.073-5.977 1.073-5.977 4.563-6.062" fill="#224259"/><path d="m561 496 5 1a91 91 0 0 1-4 4h-2z" fill="#123A54"/><path d="m746 490 6 5c-3.75 1.125-3.75 1.125-6 0z" fill="#CFDDE5"/><path d="m491 482 1 2c-1.312 2.625-1.312 2.625-3 5h-2c.564-3.27 1.5-4.826 4-7" fill="#193C52"/><path d="M692 471c6.75 2.75 6.75 2.75 9 5-5.5.367-5.5.367-7.875-1.375C692 473 692 473 692 471" fill="#264C60"/><path d="M693 453c-3.228 2.152-4.284 2.2-8 2l-1-2c3.069-1.534 5.7-.55 9 0" fill="#D4DDE2"/><path d="M576 423v2l-12-1v-1c8.571-1.286 8.571-1.286 12 0" fill="#314E66"/><path d="m657 877 2 1v2h2l1 4-3 1z" fill="#062C4D"/><path d="M712 877h5l1 4-6-1z" fill="#F2F9F8"/><path d="M560 787c5.75.875 5.75.875 8 2v3c-3.375-1.186-5.647-2.276-8-5" fill="#C9DBE3"/><path d="M648 786h8v3c-5.75-.75-5.75-.75-8-3" fill="#3E5D74"/><path d="m688 780 2 1-2 5-4-1 2-3h2z" fill="#DAE9EE"/><path d="m607 727 7 1v2l2 1-6-1v-2z" fill="#062E4D"/><path d="M494 718h2l1 7h-2z" fill="#092C45"/><path d="m565 712 7 2v3c-2.937-.812-2.937-.812-6-2z" fill="#27465D"/><path d="M557 706c2.622 1.049 3.794 1.65 5.25 4.125L563 712c-2.437-.75-2.437-.75-5-2-.812-2.125-.812-2.125-1-4" fill="#385569"/><path d="M535 652v3l-6 1v-3c3-1 3-1 6-1" fill="#052E4E"/><path d="m541 649 2 1-1 5h-2c-.625-1.875-.625-1.875-1-4z" fill="#0A304E"/><path d="m521 632 5 2-2 6c-1.945-2.918-2.453-4.625-3-8" fill="#CBD8E0"/><path d="M517 618v6h-3v-5c2-1 2-1 3-1" fill="#03294C"/><path d="M817 595c2.762 2.762 2.579 5.207 3 9l-3-2c-.187-3.625-.187-3.625 0-7" fill="#28465E"/><path d="m643 591 4 1q-.173 2.22-.375 4.438l-.21 2.496L646 601l-2 1 .035-1.898.028-2.477.035-2.46c.047-2.214.047-2.214-1.098-4.165" fill="#C7D4DE"/><path d="M823 552c2.152 3.228 2.2 4.284 2 8h-3z" fill="#0B304A"/><path d="m452 517 2 3a91 91 0 0 1-4 4h-2a56.5 56.5 0 0 1 4-7" fill="#284A62"/><path d="m727 515 3 1v3l2 1-1 3c-4-4.625-4-4.625-4-8" fill="#1E4257"/><path d="M722 512c2.5 2.313 2.5 2.313 5 5v3l-1-2c-2.017-1.134-2.017-1.134-4-2z" fill="#CCD8E0"/><path d="M525 507h2v5h-4c.875-3.875.875-3.875 2-5" fill="#F5FBFA"/><path d="M478 496c1 3 1 3 1 5l-7 1z" fill="#274A64"/><path d="m792 493 6 2v3c-2.437-.812-2.437-.812-5-2z" fill="#EAF3F5"/><path d="m602 481-4 1v2c-1.875.625-1.875.625-4 1l-2-2a328 328 0 0 1 3.875-1.562l2.18-.88C600 480 600 480 602 481" fill="#D9E8EF"/><path d="m602 464-10 4-2-2a211 211 0 0 1 3.75-1.562l2.11-.88C598 463 598 463 602 464" fill="#324F64"/><path d="m598 447-1 3-11 1c3.64-2.426 7.559-4 12-4" fill="#B3C6D1"/><path d="m596 442 5 1 1 3-7-1z" fill="#083056"/><path d="M742 425c5.75 1.75 5.75 1.75 8 4l-5 1 1-3-4 1z" fill="#2F4F66"/><path d="M520 426c-.687 1.938-.687 1.938-2 4-2.625.75-2.625.75-5 1 4.75-5 4.75-5 7-5" fill="#EDF7F9"/></svg>